<?xml version="1.0" encoding="UTF-8"?>
<svg width="14px" height="14px" viewBox="0 0 14 14" version="1.1" xmlns="http://www.w3.org/2000/svg">
    <!-- Generator: Sketch 52.6 (67491) - http://www.bohemiancoding.com/sketch -->
    <title>Shape</title>
    <desc>Created with Sketch.</desc>
    <g id="Overview" stroke="none" stroke-width="1" fill="none" fill-rule="evenodd">
        <g id="cerve-overview" transform="translate(-1294.000000, -183.000000)" fill="#7F8690" fill-rule="nonzero">
            <path d="M1306.72727,183 L1295.27273,183 C1294.56925,183 1294,183.569247 1294,184.272727 L1294,195.727273 C1294,196.430753 1294.56925,197 1295.27273,197 L1306.72727,197 C1307.43075,197 1308,196.430753 1308,195.727273 L1308,184.272727 C1308,183.569247 1307.43075,183 1306.72727,183 Z M1295.90909,195.090909 C1295.55859,195.090909 1295.27273,194.805042 1295.27273,194.454545 C1295.27273,194.104048 1295.55859,193.818182 1295.90909,193.818182 C1296.25959,193.818182 1296.54545,194.104048 1296.54545,194.454545 C1296.54545,194.805042 1296.25959,195.090909 1295.90909,195.090909 Z M1295.90909,192.545455 C1295.55859,192.545455 1295.27273,192.259588 1295.27273,191.909091 C1295.27273,191.558594 1295.55859,191.272727 1295.90909,191.272727 C1296.25959,191.272727 1296.54545,191.558594 1296.54545,191.909091 C1296.54545,192.259588 1296.25959,192.545455 1295.90909,192.545455 Z M1298.45455,195.090909 C1298.10405,195.090909 1297.81818,194.805042 1297.81818,194.454545 C1297.81818,194.104048 1298.10405,193.818182 1298.45455,193.818182 C1298.80504,193.818182 1299.09091,194.104048 1299.09091,194.454545 C1299.09091,194.805042 1298.80504,195.090909 1298.45455,195.090909 Z M1298.45455,192.545455 C1298.10405,192.545455 1297.81818,192.259588 1297.81818,191.909091 C1297.81818,191.558594 1298.10405,191.272727 1298.45455,191.272727 C1298.80504,191.272727 1299.09091,191.558594 1299.09091,191.909091 C1299.09091,192.259588 1298.80504,192.545455 1298.45455,192.545455 Z M1298.45455,190 C1298.10405,190 1297.81818,189.714133 1297.81818,189.363636 C1297.81818,189.013139 1298.10405,188.727273 1298.45455,188.727273 C1298.80504,188.727273 1299.09091,189.013139 1299.09091,189.363636 C1299.09091,189.714133 1298.80504,190 1298.45455,190 Z M1301,195.090909 C1300.6495,195.090909 1300.36364,194.805042 1300.36364,194.454545 C1300.36364,194.104048 1300.6495,193.818182 1301,193.818182 C1301.3505,193.818182 1301.63636,194.104048 1301.63636,194.454545 C1301.63636,194.805042 1301.3505,195.090909 1301,195.090909 Z M1301,192.545455 C1300.6495,192.545455 1300.36364,192.259588 1300.36364,191.909091 C1300.36364,191.558594 1300.6495,191.272727 1301,191.272727 C1301.3505,191.272727 1301.63636,191.558594 1301.63636,191.909091 C1301.63636,192.259588 1301.3505,192.545455 1301,192.545455 Z M1301,190 C1300.6495,190 1300.36364,189.714133 1300.36364,189.363636 C1300.36364,189.013139 1300.6495,188.727273 1301,188.727273 C1301.3505,188.727273 1301.63636,189.013139 1301.63636,189.363636 C1301.63636,189.714133 1301.3505,190 1301,190 Z M1303.54545,195.090909 C1303.19496,195.090909 1302.90909,194.805042 1302.90909,194.454545 C1302.90909,194.104048 1303.19496,193.818182 1303.54545,193.818182 C1303.89595,193.818182 1304.18182,194.104048 1304.18182,194.454545 C1304.18182,194.805042 1303.89595,195.090909 1303.54545,195.090909 Z M1303.54545,192.545455 C1303.19496,192.545455 1302.90909,192.259588 1302.90909,191.909091 C1302.90909,191.558594 1303.19496,191.272727 1303.54545,191.272727 C1303.89595,191.272727 1304.18182,191.558594 1304.18182,191.909091 C1304.18182,192.259588 1303.89595,192.545455 1303.54545,192.545455 Z M1302.90909,189.363636 C1302.90909,189.013139 1303.19496,188.727273 1303.54545,188.727273 C1303.89595,188.727273 1304.18182,189.013139 1304.18182,189.363636 C1304.18182,189.714133 1303.89595,190 1303.54545,190 C1303.19496,190 1302.90909,189.714133 1302.90909,189.363636 Z M1306.09091,192.545455 C1305.74041,192.545455 1305.45455,192.259588 1305.45455,191.909091 C1305.45455,191.558594 1305.74041,191.272727 1306.09091,191.272727 C1306.44141,191.272727 1306.72727,191.558594 1306.72727,191.909091 C1306.72727,192.259588 1306.44141,192.545455 1306.09091,192.545455 Z M1306.09091,190 C1305.74041,190 1305.45455,189.714133 1305.45455,189.363636 C1305.45455,189.013139 1305.74041,188.727273 1306.09091,188.727273 C1306.44141,188.727273 1306.72727,189.013139 1306.72727,189.363636 C1306.72727,189.714133 1306.44141,190 1306.09091,190 Z M1306.72727,186.818182 L1295.27273,186.818182 L1295.27273,184.272727 L1306.72727,184.272727 L1306.72727,186.818182 Z" id="Shape"></path>
        </g>
    </g>
</svg>