<svg width="14" height="12" viewBox="0 0 14 12" fill="none" xmlns="http://www.w3.org/2000/svg">
<path fill-rule="evenodd" clip-rule="evenodd" d="M4.08774 0.0384521C3.2892 0.0384521 2.60121 0.634622 2.48813 1.42562L2.30198 2.73076H3.39047L3.55454 1.57706C3.59169 1.31376 3.82174 1.11538 4.08774 1.11538H9.91226C10.1783 1.11538 10.4083 1.31427 10.4455 1.57812L10.6095 2.73076H11.698L11.5119 1.42562C11.3983 0.634622 10.7108 0.0384521 9.91226 0.0384521H4.08774ZM0.538462 3.80768C0.241231 3.80768 0 4.04891 0 4.34614V5.42307C0 5.7203 0.241231 5.96153 0.538462 5.96153H0.627855L1.46499 10.9844C1.55169 11.5034 2.00112 11.8846 2.52719 11.8846H11.4718C11.9984 11.8846 12.4473 11.5034 12.534 10.9844L13.3721 5.96153H13.4615C13.7588 5.96153 14 5.7203 14 5.42307V4.34614C14 4.04891 13.7588 3.80768 13.4615 3.80768H0.538462ZM4.84615 7.03845C4.84615 6.74122 4.60492 6.49999 4.30769 6.49999C4.01046 6.49999 3.76923 6.74122 3.76923 7.03845V9.73076C3.76923 10.028 4.01046 10.2692 4.30769 10.2692C4.60492 10.2692 4.84615 10.028 4.84615 9.73076V7.03845ZM7 6.49999C7.29723 6.49999 7.53846 6.74122 7.53846 7.03845V9.73076C7.53846 10.028 7.29723 10.2692 7 10.2692C6.70277 10.2692 6.46154 10.028 6.46154 9.73076V7.03845C6.46154 6.74122 6.70277 6.49999 7 6.49999ZM10.2308 7.03845C10.2308 6.74122 9.98954 6.49999 9.69231 6.49999C9.39508 6.49999 9.15385 6.74122 9.15385 7.03845V9.73076C9.15385 10.028 9.39508 10.2692 9.69231 10.2692C9.98954 10.2692 10.2308 10.028 10.2308 9.73076V7.03845Z" fill="#0062A8"/>
</svg>
