<?xml version="1.0" encoding="UTF-8"?>
<svg width="21px" height="27px" viewBox="0 0 21 27" version="1.1" xmlns="http://www.w3.org/2000/svg">
    <!-- Generator: Sketch 52.4 (67378) - http://www.bohemiancoding.com/sketch -->
    <title>Fill 1</title>
    <desc>Created with Sketch.</desc>
    <g id="Full-Buyer-Onboarding" stroke="none" stroke-width="1" fill="none" fill-rule="evenodd">
        <g id="cover" transform="translate(-177.000000, -62.000000)" fill="#FFFFFF">
            <path d="M197.318292,72.6012922 L197.318292,72.6015368 C197.138836,73.9499415 196.548355,75.1681908 195.677129,76.1264964 C194.868291,77.0159321 193.817732,77.6816328 192.629063,78.0191315 C192.59946,78.0269604 192.569978,78.0350339 192.540742,78.0435968 C190.926858,78.5017094 189.567296,79.5644818 188.722494,80.9713585 C188.662675,81.0709322 188.514657,81.0596782 188.471353,80.9517863 C188.169813,80.1999678 188.003935,79.3792795 188.003935,78.5195691 C188.003935,78.2243953 188.02363,77.9338699 188.061552,77.6489716 C188.487011,74.4508684 191.225708,71.9835435 194.54045,71.9835435 C194.798564,71.9835435 195.303904,72.027948 195.303904,72.027948 C196.00179,71.4675704 196.692458,69.3860632 196.692458,69.3860632 C196.748607,69.2792722 196.905065,69.2879574 196.948125,69.4006201 C197.224466,70.1245481 197.375909,70.9101287 197.375909,71.7309393 C197.375909,72.0259908 197.356214,72.3167608 197.318292,72.6012922 M197.318292,80.3356278 L197.318292,80.3358725 C197.138836,81.6842772 196.548355,82.9025265 195.677129,83.860832 C194.868291,84.7503901 193.817732,85.4159684 192.629063,85.7534672 C192.59946,85.7612961 192.569978,85.7693696 192.540742,85.7779325 C190.926858,86.2360451 189.567296,87.2988175 188.722494,88.7056942 C188.662675,88.8052679 188.514657,88.7940139 188.471353,88.686122 C188.169813,87.9343035 188.003935,87.1136152 188.003935,86.2539048 C188.003935,85.958731 188.02363,85.6682056 188.061552,85.3833073 C188.487011,82.1852041 191.225708,79.7178792 194.54045,79.7178792 C194.798564,79.7178792 195.303904,79.7622837 195.303904,79.7622837 C196.00179,79.2019061 196.692458,77.1203989 196.692458,77.1203989 C196.748607,77.0136079 196.905065,77.0222931 196.948125,77.1350781 C197.224466,77.8588838 197.375909,78.6444644 197.375909,79.465275 C197.375909,79.7603265 197.356214,80.0510965 197.318292,80.3356278 M187.393025,73.9838259 C187.183476,73.7540968 186.655872,73.1395286 185.825382,72.157981 C184.816414,70.9654203 184.280859,69.6583619 184.225811,68.0990664 L184.225811,68.0986995 L184.225811,68.0984548 L184.225811,68.0982102 C184.222997,68.0208998 184.221529,67.9429779 184.221529,67.8648113 C184.221529,67.7866446 184.222997,67.7087227 184.225811,67.6314124 L184.225811,67.6311677 L184.225811,67.6308007 L184.225811,67.6305561 C184.306548,65.338892 185.567023,63.3474171 187.418225,62.2448886 C187.462263,62.2188331 187.517433,62.2188331 187.561349,62.2448886 C189.475428,63.3849713 190.7578,65.475286 190.7578,67.8648113 C190.7578,69.4825788 190.196311,70.923707 189.195662,72.1122309 C188.343152,73.1248494 187.817873,73.7714672 187.595234,73.9895753 C187.538229,74.0452338 187.446605,74.0426649 187.393025,73.9838259 M186.528772,80.9468932 C186.48559,81.0547852 186.337572,81.0661615 186.277753,80.9664654 C185.432829,79.559711 184.073267,78.4969387 182.459505,78.0387037 C182.430147,78.0302632 182.400665,78.0220673 182.371184,78.0142384 C181.182393,77.676862 180.131834,77.0111614 179.323118,76.1217256 C178.451893,75.1634201 177.861289,73.9451707 177.681955,72.5967661 L177.681955,72.5965214 C177.643911,72.3118677 177.624216,72.0210977 177.624216,71.7261686 C177.624216,70.905358 177.775659,70.1196551 178.052,69.3958493 C178.09506,69.2830643 178.25164,69.2743792 178.307789,69.3812925 C178.307789,69.3812925 178.998335,71.4627997 179.696221,72.0230549 C179.696221,72.0230549 180.201561,71.9786504 180.459797,71.9786504 C183.774417,71.9786504 186.513114,74.4459753 186.938573,77.6442009 C186.976495,77.9290992 186.996313,78.2195022 186.996313,78.5147983 C186.996313,79.3745088 186.830435,80.1951971 186.528772,80.9468932 M186.528772,88.6812289 C186.48559,88.7891208 186.337572,88.8004972 186.277753,88.7008011 C185.432829,87.2940467 184.073267,86.2312744 182.459505,85.7730394 C182.430147,85.7645989 182.400665,85.7565253 182.371184,85.7486964 C181.182393,85.4111977 180.131834,84.7454971 179.323118,83.8560613 C178.451893,82.8977557 177.861289,81.6795064 177.681955,80.3311018 L177.681955,80.3308571 C177.643911,80.0462034 177.624216,79.7554334 177.624216,79.4605043 C177.624216,78.6396937 177.775659,77.8539908 178.052,77.130185 C178.09506,77.0174 178.25164,77.0088372 178.307789,77.1156282 C178.307789,77.1156282 178.998335,79.1971354 179.696221,79.7573906 C179.696221,79.7573906 180.201561,79.7129861 180.459797,79.7129861 C183.774417,79.7129861 186.513114,82.1804333 186.938573,85.3785365 C186.976495,85.6634349 186.996313,85.9538379 186.996313,86.249134 C186.996313,87.1088445 186.830435,87.9295327 186.528772,88.6812289" id="Fill-1"></path>
        </g>
    </g>
</svg>