<svg width="182" height="19" xmlns="http://www.w3.org/2000/svg"><g fill="none"><path d="M12.034 14.123c-.413 1.473-.896 2.474-1.449 3-.944.9-2.36 1.35-4.247 1.35-1.102 0-2.054-.161-2.856-.486-.801-.324-1.457-.778-1.966-1.362-.51-.583-.89-1.289-1.14-2.116C.126 13.682 0 12.766 0 11.761c0-1.005.146-1.925.438-2.76.293-.835.714-1.549 1.266-2.14a5.597 5.597 0 0 1 2.029-1.375C4.535 5.162 5.453 5 6.489 5c.885 0 1.657.11 2.317.328.66.22 1.215.523 1.666.912.451.39.802.856 1.053 1.399.128.278.256.695.385 1.25a.5.5 0 0 1-.423.608l-2.554.334a.5.5 0 0 1-.547-.364c-.15-.55-.307-.933-.47-1.147-.3-.397-.818-.596-1.552-.596-.535 0-.978.11-1.328.328a2.42 2.42 0 0 0-.84.888 4.003 4.003 0 0 0-.438 1.277 8.685 8.685 0 0 0-.125 1.496c0 .535.041 1.045.125 1.532.084.486.225.916.426 1.289.2.373.476.669.827.887.35.22.793.329 1.327.329.702 0 1.245-.195 1.629-.584.217-.22.412-.655.585-1.306a.5.5 0 0 1 .483-.372h2.518a.5.5 0 0 1 .481.635zm13.347-.003c-.234 1.427-.822 2.51-1.766 3.247-.944.738-2.318 1.107-4.121 1.107-2.172 0-3.804-.584-4.898-1.751-1.094-1.168-1.641-2.822-1.641-4.962 0-1.07.158-2.023.476-2.858a6.036 6.036 0 0 1 1.34-2.128 5.64 5.64 0 0 1 2.067-1.325c.802-.3 1.687-.45 2.656-.45 2.004 0 3.511.56 4.522 1.678 1.01 1.119 1.515 2.627 1.515 4.524v.862a.5.5 0 0 1-.5.5h-8.569c.034 1.021.3 1.82.802 2.395.5.576 1.253.864 2.255.864 1.386 0 2.204-.568 2.455-1.703h3.407zm-3.232-3.794c0-.875-.221-1.556-.664-2.043-.442-.486-1.131-.73-2.067-.73-.467 0-.876.074-1.227.22a2.608 2.608 0 0 0-1.453 1.471 3.255 3.255 0 0 0-.226 1.082h5.637zm5.713-4.937h2.408a.5.5 0 0 1 .5.5v1.276c.434-.665.96-1.164 1.578-1.496a4.068 4.068 0 0 1 1.954-.499c.334 0 .61.012.827.037.217.024.41.052.576.085L35.28 8.38c-.4-.098-.893-.146-1.478-.146-.384 0-.751.044-1.102.133a2.33 2.33 0 0 0-.952.499c-.3.26-.522.551-.664.876a2.463 2.463 0 0 0-.213.997v6.845a.5.5 0 0 1-.5.5h-2.508a.5.5 0 0 1-.5-.5V5.889a.5.5 0 0 1 .5-.5zm9.088 0h2.595a1 1 0 0 1 .95.685l2.703 8.144 2.704-8.144a1 1 0 0 1 .95-.685h2.418a.5.5 0 0 1 .463.688l-4.755 11.696a.5.5 0 0 1-.463.312h-2.834a.5.5 0 0 1-.463-.313L36.487 6.077a.5.5 0 0 1 .463-.688zm25.992 8.731c-.233 1.427-.822 2.51-1.766 3.247-.944.738-2.317 1.107-4.121 1.107-2.171 0-3.804-.584-4.898-1.751-1.094-1.168-1.641-2.822-1.641-4.962 0-1.07.159-2.023.476-2.858a6.036 6.036 0 0 1 1.34-2.128A5.64 5.64 0 0 1 54.4 5.45c.802-.3 1.687-.45 2.656-.45 2.004 0 3.511.56 4.522 1.678 1.01 1.119 1.516 2.627 1.516 4.524v.862a.5.5 0 0 1-.5.5h-8.57c.034 1.021.301 1.82.802 2.395.501.576 1.253.864 2.255.864 1.386 0 2.205-.568 2.455-1.703h3.407zm-3.232-3.794c0-.875-.22-1.556-.663-2.043-.443-.486-1.132-.73-2.067-.73-.468 0-.877.074-1.228.22A2.608 2.608 0 0 0 54.3 9.244a3.255 3.255 0 0 0-.225 1.082h5.636zM67.5 18c.686 0 1.276-.246 1.767-.733.487-.491.733-1.08.733-1.767a2.41 2.41 0 0 0-.733-1.767A2.406 2.406 0 0 0 67.5 13c-.692 0-1.28.24-1.767.733A2.39 2.39 0 0 0 65 15.5c0 .686.24 1.276.733 1.767A2.41 2.41 0 0 0 67.5 18zm0-.23c-.625 0-1.163-.22-1.609-.661-.44-.451-.66-.984-.66-1.609s.22-1.163.66-1.609c.446-.44.984-.66 1.609-.66s1.158.22 1.609.66c.44.446.66.984.66 1.609s-.22 1.158-.66 1.609l-.093.087a.989.989 0 0 1-.158-.482l-.057-.543c-.04-.338-.205-.538-.497-.6v-.015a.764.764 0 0 0 .436-.307.834.834 0 0 0 .138-.471c0-.328-.113-.58-.328-.748-.2-.16-.476-.236-.83-.236h-1.455v3.438h.559v-1.414h.825c.194 0 .343.04.44.128.103.082.164.21.185.394l.046.43c.02.216.061.37.128.462h.527c-.42.358-.911.537-1.475.537zm.149-2.424h-.825v-1.08h.825c.235 0 .404.04.517.133.102.082.154.215.154.4a.524.524 0 0 1-.16.404c-.117.092-.286.143-.511.143z" fill="#15141A"/><path d="M76.4 18l3.12-10.8L82.616 18h1.608l3.624-12.36H86.36l-2.88 10.8-3.072-10.728h-1.632L75.632 16.44l-2.88-10.8h-1.536L74.792 18H76.4zm14.336 0v-7.248c0-.768.12-1.372.36-1.812.24-.44.6-.868 1.08-1.284a4.06 4.06 0 0 1 1.452-.876 4.698 4.698 0 0 1 1.524-.276c1.008 0 1.744.284 2.208.852.464.568.696 1.5.696 2.796V18h1.392V9.768c0-1.44-.336-2.552-1.008-3.336-.672-.784-1.712-1.176-3.12-1.176a5.42 5.42 0 0 0-2.436.564c-.76.376-1.476.988-2.148 1.836V.864h-1.392V18h1.392zm16.976.384c.912 0 1.732-.156 2.46-.468a5.014 5.014 0 0 0 1.848-1.344c.504-.584.892-1.284 1.164-2.1.272-.816.408-1.728.408-2.736 0-.976-.132-1.864-.396-2.664s-.644-1.484-1.14-2.052a4.93 4.93 0 0 0-1.824-1.308c-.72-.304-1.528-.456-2.424-.456-.896 0-1.704.156-2.424.468a5.1 5.1 0 0 0-1.836 1.332c-.504.576-.896 1.272-1.176 2.088-.28.816-.42 1.728-.42 2.736 0 .992.132 1.888.396 2.688.264.8.64 1.484 1.128 2.052a4.844 4.844 0 0 0 1.8 1.308c.712.304 1.524.456 2.436.456zm.048-1.2c-.768 0-1.428-.14-1.98-.42-.552-.28-1-.66-1.344-1.14a4.875 4.875 0 0 1-.756-1.704 8.894 8.894 0 0 1-.24-2.112c0-.752.08-1.452.24-2.1a4.88 4.88 0 0 1 .756-1.692 3.66 3.66 0 0 1 1.344-1.14c.552-.28 1.212-.42 1.98-.42.784 0 1.448.14 1.992.42.544.28.992.66 1.344 1.14.352.48.608 1.044.768 1.692.16.648.24 1.34.24 2.076 0 .768-.08 1.48-.24 2.136a4.75 4.75 0 0 1-.768 1.704c-.352.48-.8.86-1.344 1.14-.544.28-1.208.42-1.992.42zm9.872.816V.864h-1.392V18h1.392zm8.264.384c1.536 0 2.72-.336 3.552-1.008.832-.672 1.344-1.544 1.536-2.616h-1.344a4.11 4.11 0 0 1-.396.996 2.63 2.63 0 0 1-.684.78 3.084 3.084 0 0 1-1.08.516c-.432.12-.96.18-1.584.18-.688 0-1.296-.132-1.824-.396a3.777 3.777 0 0 1-1.32-1.08 4.725 4.725 0 0 1-.792-1.608 7.178 7.178 0 0 1-.264-1.98h9.504v-.888c0-.848-.096-1.64-.288-2.376-.192-.736-.5-1.372-.924-1.908a4.438 4.438 0 0 0-1.644-1.272c-.672-.312-1.488-.468-2.448-.468-.816 0-1.564.144-2.244.432a4.913 4.913 0 0 0-1.776 1.284c-.504.568-.896 1.268-1.176 2.1-.28.832-.42 1.792-.42 2.88 0 2 .492 3.572 1.476 4.716.984 1.144 2.364 1.716 4.14 1.716zm3.864-7.416h-8.04c.144-1.552.576-2.704 1.296-3.456.72-.752 1.68-1.128 2.88-1.128.688 0 1.28.112 1.776.336.496.224.896.54 1.2.948.304.408.528.892.672 1.452.144.56.216 1.176.216 1.848zm8.696 7.416c.768 0 1.448-.092 2.04-.276.592-.184 1.084-.432 1.476-.744.392-.312.688-.684.888-1.116.2-.432.3-.888.3-1.368 0-1.136-.32-1.98-.96-2.532-.64-.552-1.608-.94-2.904-1.164l-1.896-.312c-.56-.096-1.012-.208-1.356-.336-.344-.128-.612-.28-.804-.456a1.285 1.285 0 0 1-.384-.612 2.933 2.933 0 0 1-.096-.78c0-.288.056-.568.168-.84.112-.272.3-.512.564-.72.264-.208.612-.372 1.044-.492.432-.12.968-.18 1.608-.18.576 0 1.056.048 1.44.144.384.096.704.236.96.42s.468.416.636.696c.168.28.316.604.444.972l1.272-.264a5.78 5.78 0 0 0-.468-1.224c-.2-.384-.48-.72-.84-1.008-.36-.288-.824-.516-1.392-.684-.568-.168-1.276-.252-2.124-.252-.656 0-1.268.08-1.836.24-.568.16-1.06.388-1.476.684a3.251 3.251 0 0 0-.984 1.104c-.24.44-.36.932-.36 1.476 0 .576.092 1.06.276 1.452.184.392.456.72.816.984.36.264.8.476 1.32.636.52.16 1.108.296 1.764.408l1.512.24c.544.096.988.216 1.332.36.344.144.608.32.792.528.184.208.308.436.372.684.064.248.096.516.096.804a2.17 2.17 0 0 1-.744 1.68c-.496.448-1.344.672-2.544.672-1.184 0-2.096-.2-2.736-.6-.64-.4-1.048-1.08-1.224-2.04h-1.368c.064.688.24 1.272.528 1.752.288.48.664.872 1.128 1.176.464.304 1.012.528 1.644.672a9.346 9.346 0 0 0 2.076.216zm10.664-.096c.528 0 1.012-.056 1.452-.168.44-.112.844-.264 1.212-.456s.696-.412.984-.66c.288-.248.536-.5.744-.756V18h1.392V9.864c0-.736-.08-1.388-.24-1.956a3.489 3.489 0 0 0-.78-1.44c-.36-.392-.836-.692-1.428-.9-.592-.208-1.32-.312-2.184-.312-2.784 0-4.4 1.008-4.848 3.024l1.272.192c.08-.304.2-.58.36-.828.16-.248.376-.464.648-.648a3.06 3.06 0 0 1 1.02-.42c.408-.096.908-.144 1.5-.144 1.216 0 2.06.28 2.532.84.472.56.708 1.448.708 2.664v.384l-2.4.096c-.8.032-1.572.108-2.316.228a6.543 6.543 0 0 0-1.992.636 3.718 3.718 0 0 0-1.404 1.248c-.352.528-.528 1.208-.528 2.04 0 1.232.392 2.16 1.176 2.784.784.624 1.824.936 3.12.936zm.024-1.248c-1.056 0-1.796-.228-2.22-.684-.424-.456-.636-1.06-.636-1.812 0-.496.084-.924.252-1.284.168-.36.444-.664.828-.912.384-.248.888-.44 1.512-.576.624-.136 1.4-.22 2.328-.252l2.28-.096v1.824c0 .384-.024.72-.072 1.008a2.626 2.626 0 0 1-.252.78c-.12.232-.272.444-.456.636a5.2 5.2 0 0 1-.708.6c-.336.272-.764.468-1.284.588a6.97 6.97 0 0 1-1.572.18zm10.16.96V.864h-1.392V18h1.392zm8.264.384c1.536 0 2.72-.336 3.552-1.008.832-.672 1.344-1.544 1.536-2.616h-1.344a4.11 4.11 0 0 1-.396.996 2.63 2.63 0 0 1-.684.78 3.084 3.084 0 0 1-1.08.516c-.432.12-.96.18-1.584.18-.688 0-1.296-.132-1.824-.396a3.777 3.777 0 0 1-1.32-1.08 4.725 4.725 0 0 1-.792-1.608 7.178 7.178 0 0 1-.264-1.98h9.504v-.888c0-.848-.096-1.64-.288-2.376-.192-.736-.5-1.372-.924-1.908a4.438 4.438 0 0 0-1.644-1.272c-.672-.312-1.488-.468-2.448-.468-.816 0-1.564.144-2.244.432a4.913 4.913 0 0 0-1.776 1.284c-.504.568-.896 1.268-1.176 2.1-.28.832-.42 1.792-.42 2.88 0 2 .492 3.572 1.476 4.716.984 1.144 2.364 1.716 4.14 1.716zm3.864-7.416h-8.04c.144-1.552.576-2.704 1.296-3.456.72-.752 1.68-1.128 2.88-1.128.688 0 1.28.112 1.776.336.496.224.896.54 1.2.948.304.408.528.892.672 1.452.144.56.216 1.176.216 1.848zM176.768 18v-7.44c0-.624.12-1.164.36-1.62.24-.456.544-.844.912-1.164a3.41 3.41 0 0 1 1.224-.78 3.817 3.817 0 0 1 1.272-.228c.24 0 .504.024.792.072l.168-1.32a3.912 3.912 0 0 0-.492-.06 9.396 9.396 0 0 0-.492-.012 3.9 3.9 0 0 0-2.04.576c-.64.384-1.208.928-1.704 1.632V5.64h-1.392V18h1.392z" fill="#000"/></g></svg>