<?xml version="1.0" encoding="UTF-8"?>
<svg width="40px" height="40px" viewBox="0 0 40 40" version="1.1" xmlns="http://www.w3.org/2000/svg">
    <!-- Generator: Sketch 52.6 (67491) - http://www.bohemiancoding.com/sketch -->
    <title>cerve_logo</title>
    <desc>Created with Sketch.</desc>
    <g id="dashboard-190201" stroke="none" stroke-width="1" fill="none" fill-rule="evenodd">
        <g id="d-3-customers-copy" transform="translate(-208.000000, -116.000000)" fill="#000000">
            <path d="M238.0699,133.026885 L238.0699,133.027136 C237.885843,134.410109 237.280224,135.659589 236.386664,136.642462 C235.55709,137.554699 234.479599,138.237466 233.260457,138.583617 C233.230095,138.591646 233.199858,138.599927 233.169872,138.608709 C231.514614,139.078566 230.120198,140.168584 229.253738,141.611528 C229.192386,141.713654 229.040574,141.702111 228.996159,141.591454 C228.686888,140.820361 228.516758,139.978634 228.516758,139.096884 C228.516758,138.794143 228.536958,138.496169 228.575852,138.203967 C229.012219,134.923877 231.821125,132.3933 235.220845,132.3933 C235.485575,132.3933 236.003871,132.438843 236.003871,132.438843 C236.719647,131.864099 237.428022,129.72923 237.428022,129.72923 C237.48561,129.619701 237.646079,129.628609 237.690243,129.74416 C237.973668,130.486647 238.128994,131.292367 238.128994,132.13422 C238.128994,132.436835 238.108794,132.735059 238.0699,133.026885 M238.0699,140.959499 L238.0699,140.95975 C237.885843,142.342723 237.280224,143.592203 236.386664,144.575076 C235.55709,145.487439 234.479599,146.17008 233.260457,146.516231 C233.230095,146.524261 233.199858,146.532541 233.169872,146.541323 C231.514614,147.01118 230.120198,148.101198 229.253738,149.544142 C229.192386,149.646268 229.040574,149.634726 228.996159,149.524068 C228.686888,148.752975 228.516758,147.911248 228.516758,147.029498 C228.516758,146.726757 228.536958,146.428784 228.575852,146.136582 C229.012219,142.856491 231.821125,140.325914 235.220845,140.325914 C235.485575,140.325914 236.003871,140.371457 236.003871,140.371457 C236.719647,139.796713 237.428022,137.661844 237.428022,137.661844 C237.48561,137.552316 237.646079,137.561223 237.690243,137.6769 C237.973668,138.419261 238.128994,139.224981 238.128994,140.066834 C238.128994,140.369449 238.108794,140.667674 238.0699,140.959499 M227.890187,134.444862 C227.675266,134.209243 227.134136,133.57892 226.282355,132.572209 C225.247522,131.349076 224.698237,130.00851 224.641778,128.40924 L224.641778,128.408863 L224.641778,128.408612 L224.641778,128.408361 C224.638892,128.329069 224.637386,128.24915 224.637386,128.168979 C224.637386,128.088809 224.638892,128.008889 224.641778,127.929597 L224.641778,127.929346 L224.641778,127.928969 L224.641778,127.928719 C224.724584,125.578305 226.017374,123.535776 227.916033,122.404983 C227.9612,122.37826 228.017785,122.37826 228.062827,122.404983 C230.025974,123.574293 231.341222,125.718196 231.341222,128.168979 C231.341222,129.82822 230.765338,131.306293 229.739036,132.525286 C228.864672,133.563864 228.325926,134.227059 228.09758,134.450758 C228.039114,134.507844 227.945141,134.505209 227.890187,134.444862 M227.003778,141.586435 C226.959489,141.697093 226.807677,141.708761 226.746324,141.606509 C225.879739,140.163691 224.485323,139.073673 222.830191,138.603691 C222.80008,138.595034 222.769843,138.586628 222.739606,138.578598 C221.520339,138.232573 220.442847,137.549806 219.613399,136.637569 C218.719839,135.654696 218.114095,134.405215 217.930163,133.022243 L217.930163,133.021992 C217.891144,132.730041 217.870944,132.431817 217.870944,132.129327 C217.870944,131.287474 218.026269,130.481628 218.309694,129.739267 C218.353858,129.623591 218.514453,129.614683 218.572041,129.724337 C218.572041,129.724337 219.28029,131.859206 219.996067,132.433824 C219.996067,132.433824 220.514362,132.388281 220.779218,132.388281 C224.178812,132.388281 226.987719,134.918859 227.424085,138.199074 C227.462979,138.491276 227.483305,138.789124 227.483305,139.091991 C227.483305,139.973741 227.313174,140.815468 227.003778,141.586435 M227.003778,149.519049 C226.959489,149.629707 226.807677,149.641375 226.746324,149.539123 C225.879739,148.096305 224.485323,147.006287 222.830191,146.536305 C222.80008,146.527648 222.769843,146.519368 222.739606,146.511338 C221.520339,146.165187 220.442847,145.48242 219.613399,144.570183 C218.719839,143.58731 218.114095,142.33783 217.930163,140.954857 L217.930163,140.954606 C217.891144,140.662655 217.870944,140.364431 217.870944,140.061941 C217.870944,139.220088 218.026269,138.414243 218.309694,137.671881 C218.353858,137.556205 218.514453,137.547422 218.572041,137.656951 C218.572041,137.656951 219.28029,139.79182 219.996067,140.366438 C219.996067,140.366438 220.514362,140.320895 220.779218,140.320895 C224.178812,140.320895 226.987719,142.851598 227.424085,146.131689 C227.462979,146.423891 227.483305,146.721738 227.483305,147.024605 C227.483305,147.906355 227.313174,148.748082 227.003778,149.519049 M227.999969,116 C216.954298,116 208,124.954129 208,135.999592 C208,147.045055 216.954298,155.99931 227.999969,155.99931 C239.045639,155.99931 247.999937,147.045055 247.999937,135.999592 C247.999937,124.954129 239.045639,116 227.999969,116" id="cerve_logo"></path>
        </g>
    </g>
</svg>