<?xml version="1.0" encoding="UTF-8"?>
<svg width="12px" height="12px" viewBox="0 0 12 12" version="1.1" xmlns="http://www.w3.org/2000/svg">
    <!-- Generator: Sketch 52.6 (67491) - http://www.bohemiancoding.com/sketch -->
    <title>close-circle</title>
    <desc>Created with Sketch.</desc>
    <g id="dashboard-190201" stroke="none" stroke-width="1" fill="none" fill-rule="evenodd">
        <g id="d-3-customers-copy" transform="translate(-1194.000000, -814.000000)" fill="#9FAAB1" fill-rule="nonzero">
            <g id="icons8-cancel" transform="translate(1194.000000, 814.000000)">
                <path d="M6,0 C2.6865,0 0,2.6865 0,6 C0,9.3135 2.6865,12 6,12 C9.3135,12 12,9.3135 12,6 C12,2.6865 9.3135,0 6,0 Z M6.707,6 C6.707,6 8.2765,7.5695 8.3535,7.6465 C8.549,7.842 8.549,8.1585 8.3535,8.3535 C8.158,8.549 7.8415,8.549 7.6465,8.3535 C7.5695,8.277 6,6.707 6,6.707 C6,6.707 4.4305,8.2765 4.3535,8.3535 C4.158,8.549 3.8415,8.549 3.6465,8.3535 C3.451,8.158 3.451,7.8415 3.6465,7.6465 C3.723,7.5695 5.293,6 5.293,6 C5.293,6 3.7235,4.4305 3.6465,4.3535 C3.451,4.158 3.451,3.8415 3.6465,3.6465 C3.842,3.451 4.1585,3.451 4.3535,3.6465 C4.4305,3.723 6,5.293 6,5.293 C6,5.293 7.5695,3.7235 7.6465,3.6465 C7.842,3.451 8.1585,3.451 8.3535,3.6465 C8.549,3.842 8.549,4.1585 8.3535,4.3535 C8.277,4.4305 6.707,6 6.707,6 Z" id="close-circle"></path>
            </g>
        </g>
    </g>
</svg>