<?xml version="1.0" encoding="UTF-8"?>
<svg width="22px" height="22px" viewBox="0 0 22 22" version="1.1" xmlns="http://www.w3.org/2000/svg" xmlns:xlink="http://www.w3.org/1999/xlink">
    <title>deal_off 2</title>
    <g id="Explore" stroke="none" stroke-width="1" fill="none" fill-rule="evenodd">
        <g id="home-en-deal-indicator" transform="translate(-25.000000, -464.000000)" fill="#9FAAB1" fill-rule="nonzero">
            <g id="running-out" transform="translate(0.000000, 295.000000)">
                <g id="products" style="mix-blend-mode: darken;" transform="translate(25.000000, 74.000000)">
                    <g id="product1">
                        <path d="M11.0019837,95 C10.598998,95 10.1952322,95.1965348 9.95915247,95.5900011 L9.49971162,96.3568373 C9.30171008,96.6868413 8.97624069,96.9097526 8.60562083,97.0112923 C8.21754884,97.1178297 7.82031458,97.0859531 7.48015663,96.8972585 L6.6967936,96.4642605 C5.89463007,96.018332 4.90731526,96.5881971 4.89208431,97.5054389 L4.87721036,98.4110989 C4.87044104,98.7944112 4.70011084,99.1501042 4.42933834,99.4208767 L4.42107504,99.42914 C4.15030254,99.7007587 3.79460953,99.8710889 3.41129721,99.877012 L2.50728988,99.891886 C1.58920187,99.9079631 1.0185303,100.894432 1.46445885,101.696595 L1.89910946,102.481611 C2.08611172,102.81923 2.11718185,103.21493 2.014796,103.587243 C2.01310367,103.594012 2.01072383,103.600306 2.00818534,103.607075 C1.90749182,103.975156 1.68780647,104.299898 1.36034098,104.496208 L0.590199432,104.957302 C-0.196733144,105.429461 -0.196733144,106.569998 0.590199432,107.041311 L1.36034098,107.502405 C1.68780647,107.698715 1.90833798,108.023457 2.00818534,108.391538 C2.00987767,108.398307 2.0122575,108.4046 2.014796,108.411369 C2.11718185,108.783682 2.08611172,109.179383 1.89910946,109.517002 L1.46445885,110.303671 C1.01937647,111.105834 1.59004804,112.093149 2.50728988,112.10838 L3.41129721,112.123253 C3.79460953,112.130023 4.15030254,112.300353 4.42107504,112.571126 L4.42933834,112.579389 C4.700957,112.850162 4.87128721,113.205854 4.87721036,113.589167 L4.89208431,114.493174 C4.90731526,115.410416 5.89463007,115.981087 6.6967936,115.536005 L7.48180919,115.099702 C7.81858248,114.912699 8.21512881,114.881629 8.58744184,114.984016 C8.59421031,114.985707 8.60050407,114.988087 8.60727339,114.990626 C8.97535475,115.091319 9.30009644,115.312657 9.4964065,115.640123 L9.95749992,116.408612 C10.4296595,117.195544 11.5693502,117.195544 12.0415098,116.408612 L12.5026032,115.640123 C12.6989132,115.312657 13.0220024,115.090473 13.3900837,114.990626 C13.396853,114.988934 13.4047985,114.986554 13.4115678,114.984016 C13.7830339,114.88163 14.1779285,114.912699 14.5155479,115.099702 L15.3005631,115.536005 C16.1027266,115.981087 17.0900419,115.410416 17.1052728,114.493174 L17.1201467,113.589167 C17.126916,113.205854 17.2972463,112.850162 17.5680188,112.579389 L17.5762816,112.571126 C17.8470541,112.299507 18.2027476,112.129177 18.5860599,112.123253 L19.4917195,112.10838 C20.4089613,112.093149 20.979633,111.105833 20.5345507,110.303671 L20.0982473,109.518655 C19.9112451,109.181035 19.8801748,108.785334 19.9825606,108.413022 C19.9842529,108.406254 19.9866332,108.39996 19.9891717,108.393191 C20.0898652,108.025109 20.3112031,107.700367 20.6386686,107.504057 L21.4071574,107.042964 C22.1966284,106.570804 22.1965489,105.429461 21.4104625,104.957302 L20.6419737,104.496208 C20.3145082,104.299898 20.0923242,103.976809 19.9924768,103.608728 C19.9907845,103.601958 19.9884051,103.594012 19.9858666,103.587243 C19.8834807,103.215777 19.9145502,102.820883 20.1015524,102.483263 L20.5378558,101.698248 C20.9829381,100.896084 20.4122673,99.9087696 19.4950246,99.8935386 L18.589365,99.8786647 C18.2060527,99.8718953 17.85036,99.7015651 17.5795875,99.4307926 L17.5713239,99.4225293 C17.2997052,99.1517568 17.1293749,98.7960638 17.1234518,98.4127515 L17.1085779,97.5070915 C17.0925008,96.5881574 16.1060326,96.018332 15.3038691,96.4642605 L14.5188531,96.8989111 C14.1820798,97.0859134 13.7855326,97.1169835 13.4132204,97.0145977 C13.4064519,97.0129053 13.4001582,97.0105255 13.3933889,97.007987 C13.0253075,96.9072935 12.7005658,96.6876081 12.5042557,96.3601426 L12.0431623,95.5900011 C11.8070825,95.1965348 11.4049693,95 11.0019837,95 Z" id="deal_off-2"></path>
                    </g>
                </g>
            </g>
        </g>
    </g>
</svg>