<?xml version="1.0" encoding="UTF-8"?>
<svg width="46px" height="22px" viewBox="0 0 46 22" version="1.1" xmlns="http://www.w3.org/2000/svg" xmlns:xlink="http://www.w3.org/1999/xlink">
    <title>deal-4-digits</title>
    <g id="deal-4-digits" stroke="none" stroke-width="1" fill="none" fill-rule="evenodd">
        <path d="M29.0009868,19.4991183 L29,22 L29,22 C27.5006436,22 28.023759,19.9349503 25.9956268,19.9349503 C23.9674946,19.9349503 24.5099636,21.9988143 23.00466,21.9988143 L23.0040867,21.9106417 C23.0040253,21.8912815 23.0039648,21.8688164 23.0039051,21.8433292 L23.0030665,21.2447091 C23.0030144,21.1910703 23.002963,21.1348233 23.0029123,21.076051 L23.0020769,19.7632934 C23.0020347,19.6771973 23.0019931,19.5890726 23.0019522,19.4990021 L23.0010286,19.2231131 C23.001015,19.317005 23.0010011,19.4090344 23.0009868,19.4991183 L23,22 L23,22 C21.5006436,22 22.023759,19.9349503 19.9956268,19.9349503 C17.9674946,19.9349503 18.5099636,21.9988143 17.00466,21.9988143 L17.0040867,21.9106417 C17.0040253,21.8912815 17.0039648,21.8688164 17.0039051,21.8433292 L17.0030665,21.2447091 C17.0030144,21.1910703 17.002963,21.1348233 17.0029123,21.076051 L17.0020769,19.7632934 C17.0020347,19.6771973 17.0019931,19.5890726 17.0019522,19.4990021 L17.0010286,19.2231131 C17.001015,19.317005 17.0010011,19.4090344 17.0009868,19.4991183 L17,22 L17,22 C15.5006436,22 16.023759,19.9349503 13.9956268,19.9349503 C11.9674946,19.9349503 12.5099636,21.9988143 11.00466,21.9988143 L11.0040867,21.9106417 C11.0040253,21.8912815 11.0039648,21.8688164 11.0039051,21.8433292 L11.0030665,21.2447091 C11.0030144,21.1910703 11.002963,21.1348233 11.0029123,21.076051 L11.0020769,19.7632934 C11.0020347,19.6771973 11.0019931,19.5890726 11.0019522,19.4990021 L11.0010035,16.6546291 C11.0009739,16.5362407 11.0009449,16.4166518 11.0009165,16.295945 L11.0000666,19.223035 C11.0000362,19.3169143 11.0000053,19.4089305 10.9999739,19.499001 L10.9990012,21.3977165 C10.9989603,21.4460562 10.9989189,21.4917048 10.9988769,21.5345798 L10.9980583,21.9888788 L10.9980583,21.9888788 L10.9979092,21.998812 C10.5954788,21.9982913 10.1932681,21.8015585 9.95749992,21.4086116 L9.95749992,21.4086116 L9.4964065,20.6401228 C9.30009644,20.3126573 8.97535475,20.0913194 8.60727339,19.9906259 L8.60727339,19.9906259 L8.58744184,19.9840157 C8.21512881,19.881629 7.81858248,19.9126993 7.48180919,20.0997015 L7.48180919,20.0997015 L6.6967936,20.5360049 C5.89463007,20.9810872 4.90731526,20.4104155 4.89208431,19.4931737 L4.89208431,19.4931737 L4.87721036,18.5891667 C4.87128721,18.2058544 4.700957,17.8501617 4.42933834,17.5793892 L4.42933834,17.5793892 L4.42107504,17.5711256 C4.15030254,17.3003531 3.79460953,17.1300228 3.41129721,17.1232535 L3.41129721,17.1232535 L2.50728988,17.1083796 C1.59004804,17.0931486 1.01937647,16.1058343 1.46445885,15.3036707 L1.46445885,15.3036707 L1.89910946,14.5170022 C2.08611172,14.1793827 2.11718185,13.7836817 2.014796,13.4113695 L2.014796,13.4113695 L2.00818534,13.391538 C1.90833798,13.0234566 1.68780647,12.6987149 1.36034098,12.5024048 L1.36034098,12.5024048 L0.590199432,12.0413114 C-0.196733144,11.569998 -0.196733144,10.4294611 0.590199432,9.95730158 L0.590199432,9.95730158 L1.36034098,9.49620816 C1.68780647,9.2998981 1.90749182,8.97515641 2.00818534,8.60707505 L2.00818534,8.60707505 L2.014796,8.5872435 C2.11718185,8.21493047 2.08611172,7.81923031 1.89910946,7.48161085 L1.89910946,7.48161085 L1.46445885,6.69659525 C1.0185303,5.89443173 1.58920187,4.90796309 2.50728988,4.89188597 L2.50728988,4.89188597 L3.41129721,4.87701201 C3.79460953,4.87108887 4.15030254,4.70075866 4.42107504,4.42914 L4.42107504,4.42914 L4.42933834,4.4208767 C4.70011084,4.1501042 4.87044104,3.79441119 4.87721036,3.41109887 L4.87721036,3.41109887 L4.89208431,2.5054389 C4.90731526,1.58819706 5.89463007,1.01833196 6.6967936,1.46426051 L6.6967936,1.46426051 L7.48015663,1.89725848 C7.82031458,2.08595306 8.21754884,2.11782967 8.60562083,2.01129229 C8.97624069,1.9097526 9.30171008,1.68684125 9.49971162,1.35683727 L9.49971162,1.35683727 L9.95915247,0.590001091 C10.1952322,0.196534803 10.598998,-3.09796633e-12 11.0019837,-3.09796633e-12 L11,-1.03739239e-12 L11.0019837,-3.09796633e-12 C12.5006436,-1.03739239e-12 11.9748481,2.06230539 13.9993036,2.06230539 C16.023759,2.06230539 15.5006436,-1.03739239e-12 17,-1.03739239e-12 C18.5006436,-2.62900812e-12 17.9748481,2.06230539 19.9993036,2.06230539 C22.023759,2.06230539 21.5006436,-2.62900812e-12 23,-2.62900812e-12 C24.5006436,-1.83320026e-12 23.9748481,2.06230539 25.9993036,2.06230539 C28.023759,2.06230539 27.5006436,-1.83320026e-12 29,-1.83320026e-12 C30.5006436,-2.4158453e-13 29.9748481,2.06230539 31.9993036,2.06230539 C34.023759,2.06230539 33.5006436,-2.4158453e-13 35,-2.4158453e-13 C35.4029856,-1.67688086e-12 35.8067514,0.196534803 36.0428312,0.590001091 L36.5022721,1.35683727 C36.7002736,1.68684125 37.025743,1.9097526 37.3963628,2.01129229 C37.7844348,2.11782967 38.1816691,2.08595306 38.521827,1.89725848 L39.3051901,1.46426051 C40.1073536,1.01833196 41.0946684,1.58819706 41.1098994,2.5054389 L41.1247733,3.41109887 C41.1315426,3.79441119 41.3018728,4.1501042 41.5726453,4.4208767 L41.5809086,4.42914 C41.8516811,4.70075866 42.2073742,4.87108887 42.5906865,4.87701201 L43.4946938,4.89188597 C44.4127818,4.90796309 44.9834534,5.89443173 44.5375248,6.69659525 L44.1028742,7.48161085 C43.915872,7.81923031 43.8848018,8.21493047 43.9871877,8.5872435 L43.9937983,8.60707505 L43.9937983,8.60707505 C44.0944919,8.97515641 44.3141772,9.2998981 44.6416427,9.49620816 L45.4117842,9.95730158 C46.1987168,10.4294611 46.1987168,11.569998 45.4117842,12.0413114 L44.6416427,12.5024048 C44.3141772,12.6987149 44.0936457,13.0234566 43.9937983,13.391538 L43.9871877,13.4113695 L43.9871877,13.4113695 C43.8848018,13.7836817 43.915872,14.1793827 44.1028742,14.5170022 L44.5375248,15.3036707 C44.9826072,16.1058343 44.4119356,17.0931486 43.4946938,17.1083796 L42.5906865,17.1232535 C42.2073742,17.1300228 41.8516811,17.3003531 41.5809086,17.5711256 L41.5726453,17.5793892 C41.3010267,17.8501617 41.1306965,18.2058544 41.1247733,18.5891667 L41.1098994,19.4931737 C41.0946684,20.4104155 40.1073536,20.9810872 39.3051901,20.5360049 L38.5201745,20.0997015 C38.1834012,19.9126993 37.7868549,19.881629 37.4145418,19.9840157 L37.3947103,19.9906259 L37.3947103,19.9906259 C37.0266289,20.0913194 36.7018872,20.3126573 36.5055772,20.6401228 L36.0444838,21.4086116 C35.8087156,21.8015585 35.4065049,21.9982913 35.0040744,21.998812 L35.0039254,21.9888788 L35.0039254,21.9888788 L35.0031068,21.5345798 C35.0030648,21.4917048 35.0030234,21.4460562 35.0029825,21.3977165 L35.0020098,19.499001 L35.0020098,19.499001 L35.0010286,19.2231131 C35.001015,19.317005 35.0010011,19.4090344 35.0009868,19.4991183 L35,22 L35,22 C33.5006436,22 34.023759,19.9349503 31.9956268,19.9349503 C29.9674946,19.9349503 30.5099636,21.9988143 29.00466,21.9988143 L29.0040867,21.9106417 C29.0040253,21.8912815 29.0039648,21.8688164 29.0039051,21.8433292 L29.0030665,21.2447091 C29.0030144,21.1910703 29.002963,21.1348233 29.0029123,21.076051 L29.0020769,19.7632934 C29.0020347,19.6771973 29.0019931,19.5890726 29.0019522,19.4990021 L29.0010286,19.2231131 C29.001015,19.317005 29.0010011,19.4090344 29.0009868,19.4991183 Z" id="Combined-Shape" fill="#9FAAB1" fill-rule="nonzero"></path>
    </g>
</svg>