<?xml version="1.0" encoding="UTF-8"?>
<svg width="20px" height="20px" viewBox="0 0 20 20" version="1.1" xmlns="http://www.w3.org/2000/svg" xmlns:xlink="http://www.w3.org/1999/xlink">
    <title>default_off_icon</title>
    <g id="default_off_icon" stroke="none" stroke-width="1" fill="none" fill-rule="evenodd">
        <path d="M10.0005384,0.5 C10.2010971,0.5 10.4016012,0.597979555 10.5189946,0.79363519 L10.5189946,0.79363519 L10.9382011,1.49282561 C11.1826802,1.90064191 11.5825836,2.18211231 12.0417545,2.3077234 C12.5312871,2.44276686 13.0226432,2.39565538 13.4405938,2.16357725 L13.4405938,2.16357725 L14.1537717,1.7673673 C14.353268,1.65646587 14.575813,1.67192115 14.7494772,1.77226227 C14.9235445,1.87283627 15.0484036,2.05854767 15.0524041,2.28720359 L15.0524041,2.28720359 L15.0662389,3.10957684 C15.0736287,3.58780187 15.2800015,4.03459661 15.6195395,4.37307601 C15.9679038,4.72144035 16.4134672,4.92564147 16.8900461,4.9340577 L16.8900461,4.9340577 L17.7132126,4.94790535 C17.9414336,4.95169499 18.1264712,5.07646299 18.2267878,5.25014423 C18.3271167,5.42384679 18.3427301,5.64650812 18.2321059,5.84588417 L18.2321059,5.84588417 L17.8356513,6.55950328 C17.6024451,6.98054064 17.5583015,7.47445783 17.6859965,7.93773912 C17.8177364,8.42148822 18.1009408,8.81808376 18.5066886,9.06132277 L18.5066886,9.06132277 L19.2055609,9.48033845 C19.4011757,9.59783364 19.4989025,9.79855847 19.4985767,9.99921906 C19.4982509,10.1999458 19.3997317,10.4004617 19.2024796,10.5184334 L19.2024796,10.5184334 L18.503636,10.9382011 C18.0958197,11.1826802 17.8143493,11.5825836 17.6887382,12.0417545 C17.5537513,12.531082 17.6006154,13.0212494 17.8328843,13.4405938 L17.8328843,13.4405938 L18.2288986,14.1534193 C18.3396532,14.3530303 18.3240399,14.5756916 18.223711,14.7493942 C18.1233944,14.9230754 17.9383567,15.0478434 17.7100272,15.0516349 L17.7100272,15.0516349 L16.887654,15.0654697 C16.4094289,15.0728595 15.9626342,15.2792323 15.6241548,15.6187703 C15.2757904,15.9671346 15.0715893,16.412698 15.0631732,16.889269 L15.0631732,16.889269 L15.0493254,17.7116742 C15.0455358,17.9398951 14.9207678,18.1249328 14.7470866,18.2252494 C14.573384,18.3255783 14.3507227,18.3411916 14.1513466,18.2305675 L14.1513466,18.2305675 L13.4377275,17.8341129 C13.0166901,17.6009067 12.522773,17.556763 12.0594917,17.684458 C11.5757426,17.816198 11.179147,18.0994023 10.935908,18.5051502 L10.935908,18.5051502 L10.5167702,19.204226 C10.3992935,19.4000204 10.1987895,19.498 9.99823079,19.498 C9.79767212,19.498 9.59716806,19.4000204 9.47977465,19.2043648 L9.47977465,19.2043648 L9.06056807,18.5051744 C8.81608905,18.0973581 8.41618562,17.8158877 7.9570147,17.6902766 C7.46748216,17.5552331 6.97612605,17.6023446 6.55817542,17.8344227 L6.55817542,17.8344227 L5.84534993,18.230437 C5.64573891,18.3411916 5.42307758,18.3255783 5.24937502,18.2252494 C5.07569378,18.1249328 4.95092578,17.9398951 4.94713419,17.7115578 L4.94713419,17.7115578 L4.93329954,16.8899616 C4.92590974,16.4117366 4.71953693,15.9649418 4.37999892,15.6264624 C4.03163459,15.2780981 3.58607126,15.073897 3.1094923,15.0654807 L3.1094923,15.0654807 L2.28632579,15.0516331 C2.05810487,15.0478434 1.87306719,14.9230754 1.7727506,14.7493942 C1.67242169,14.5756916 1.65680837,14.3530303 1.76765441,14.1532545 L1.76765441,14.1532545 L2.16388715,13.4384967 C2.39704133,13.0175532 2.44129342,12.5248058 2.31354197,12.0602609 C2.18180202,11.5765118 1.89859765,11.1799162 1.49319659,10.9368853 L1.49319659,10.9368853 L0.793434732,10.5165668 C0.597766449,10.3993762 0.5,10.1989516 0.5,9.99851924 C0.5,9.79788196 0.597930274,9.59719763 0.79363519,9.47977465 L0.79363519,9.47977465 L1.49282561,9.06056807 C1.90064191,8.81608905 2.18211231,8.41618562 2.3077234,7.9570147 C2.44271028,7.46768726 2.39584617,6.97751982 2.16357725,6.55817542 L2.16357725,6.55817542 L1.7673673,5.84499754 C1.6564606,5.64549175 1.6719146,5.42294195 1.77218402,5.24926098 C1.87262808,5.07527753 2.05808289,4.95036401 2.28643437,4.94636511 L2.28643437,4.94636511 L3.10880762,4.93253032 C3.58703265,4.92514053 4.0338274,4.71876772 4.37230679,4.37922971 C4.72067113,4.03086537 4.92487226,3.58530204 4.93328849,3.10872309 L4.93328849,3.10872309 L4.94713614,2.28555657 C4.95092528,2.05736566 5.07566214,1.87233098 5.24934402,1.77209545 C5.42297082,1.6718917 5.64550709,1.65646913 5.84523547,1.76749948 L5.84523547,1.76749948 L6.55614487,2.16219265 C6.97951357,2.39704644 7.47561642,2.44131219 7.94325426,2.3125268 C8.41914079,2.18197386 8.81910472,1.89859786 9.06431639,1.48991174 L9.06431639,1.48991174 L9.48199906,0.793773957 C9.5994757,0.597979555 9.79997976,0.5 10.0005384,0.5 Z" id="Shape" stroke="#9FAAB1" fill-rule="nonzero"></path>
    </g>
</svg>