<?xml version="1.0" encoding="UTF-8"?>
<svg width="20px" height="20px" viewBox="0 0 20 20" version="1.1" xmlns="http://www.w3.org/2000/svg" xmlns:xlink="http://www.w3.org/1999/xlink">
    <title>default_on_icon</title>
    <g id="default_on_icon" stroke="none" stroke-width="1" fill="none" fill-rule="evenodd">
        <path d="M19.4630123,9.05171417 L18.7637977,8.63249308 C18.4661123,8.45403566 18.2645785,8.15942707 18.1738113,7.82481941 C18.1722729,7.81866571 18.1707345,7.812512 18.1684268,7.8063583 C18.0753521,7.46867378 18.1030437,7.10868209 18.2730398,6.8017661 L18.6691845,6.08870563 C19.0737906,5.35949169 18.555341,4.4618201 17.7215141,4.44797427 L16.8984562,4.43412843 C16.5500027,4.42797473 16.2269332,4.27336291 15.980785,4.02721475 C15.9784774,4.02490711 15.9754005,4.02183026 15.9730929,4.01952262 C15.7261755,3.77337445 15.5715637,3.45030498 15.5661792,3.10185149 L15.5523334,2.27879356 C15.5377183,1.44342823 14.6400467,0.924978652 13.9108328,1.33035391 L13.1977723,1.72649862 C12.8916255,1.89649469 12.5316339,1.92418636 12.1931801,1.83111159 C12.1870264,1.82957316 12.1808727,1.82803473 12.174719,1.82572709 C11.8401114,1.73419075 11.5455028,1.53342615 11.3670453,1.23574071 L10.9478243,0.536526079 C10.5186034,-0.178842026 9.48247346,-0.178842026 9.0532526,0.536526079 L8.63556993,1.23266386 C8.45557408,1.53265694 8.15865786,1.73495996 7.82174256,1.82726552 C7.81789649,1.82803473 7.81481964,1.82957316 7.81097357,1.83034237 C7.47021221,1.92418636 7.10791288,1.89649469 6.79868925,1.72496019 L6.08793642,1.33035391 C5.35872248,0.924978652 4.46105089,1.44342823 4.44720505,2.27725514 L4.43335922,3.10031306 C4.42720552,3.44876656 4.2725937,3.77183603 4.02644553,4.01798419 C4.0241379,4.02029183 4.02106104,4.02336868 4.0187534,4.02567632 C3.77260524,4.2725937 3.44953577,4.42720552 3.10108228,4.43259001 L2.27802435,4.44643584 C1.44342823,4.46105089 0.924978652,5.35872248 1.33035391,6.08793642 L1.72649862,6.80099688 C1.89649469,7.10791288 1.92418636,7.46713536 1.83111159,7.80558908 C1.82957316,7.81174279 1.82803473,7.81789649 1.82572709,7.8240502 C1.73419075,8.15865786 1.53342615,8.45326644 1.23574071,8.63172386 L0.536526079,9.05094496 C-0.178842026,9.48016582 -0.178842026,10.517065 0.536526079,10.9455166 L1.23574071,11.3655069 C1.53342615,11.5439643 1.73495996,11.8385729 1.82572709,12.1731806 C1.82726552,12.1793343 1.82880395,12.185488 1.83111159,12.1916417 C1.92418636,12.5300954 1.89649469,12.8893179 1.72649862,13.1962339 L1.33035391,13.9108328 C0.925747865,14.6400467 1.44419744,15.5377183 2.27802435,15.5515642 L3.10108228,15.56541 C3.44953577,15.5715637 3.77260524,15.7261755 4.0187534,15.9723237 C4.02106104,15.9746313 4.0241379,15.9777082 4.02644553,15.9800158 C4.27336291,16.226164 4.42797473,16.5492334 4.43335922,16.8976869 L4.44720505,17.7199757 C4.46105089,18.5538026 5.35872248,19.0722521 6.08793642,18.6676461 L6.80099688,18.2715014 C7.10714366,18.1015053 7.46713536,18.0738136 7.80558908,18.1668884 C7.81174279,18.1684268 7.81789649,18.1699653 7.8240502,18.1722729 C8.15865786,18.2638093 8.45326644,18.4645739 8.63172386,18.7622593 L9.05094496,19.4614739 C9.48016582,20.176842 10.5162958,20.176842 10.9455166,19.4614739 L11.3647377,18.7622593 C11.5431951,18.4645739 11.8378037,18.26304 12.1724114,18.1722729 C12.1785651,18.1707345 12.1847188,18.1691961 12.1908725,18.1668884 C12.528557,18.0738136 12.8885487,18.1015053 13.1954647,18.2715014 L13.9085252,18.6676461 C14.6377391,19.0722521 15.5354107,18.5538026 15.5492565,17.7199757 L15.5631024,16.8976869 C15.5692561,16.5492334 15.7238679,16.226164 15.970016,15.9800158 C15.9723237,15.9777082 15.9754005,15.9746313 15.9777082,15.9723237 C16.2238563,15.7254063 16.5469258,15.5707945 16.8953793,15.56541 L17.7184372,15.5515642 C18.5522641,15.5377183 19.0707137,14.6400467 18.6661077,13.9108328 L18.269963,13.1977723 C18.0999669,12.8908563 18.0722752,12.5316339 18.16535,12.1931801 C18.1668884,12.1870264 18.1684268,12.1808727 18.1707345,12.174719 C18.2622708,11.8401114 18.4630354,11.5455028 18.7607209,11.3670453 L19.4599355,10.947055 C20.1776112,10.5178342 20.1776112,9.48093503 19.4630123,9.05171417 Z M14.3892833,8.23557916 L9.3432459,13.2816165 C9.19863386,13.4262286 9.00325375,13.506996 8.7994123,13.506996 C8.59557085,13.506996 8.39942153,13.4262286 8.2555787,13.2816165 L5.59948615,10.625524 C5.29872386,10.3247617 5.29872386,9.83861909 5.59948615,9.5378568 C5.90024844,9.23709451 6.38639107,9.23709451 6.68715336,9.5378568 L8.7994123,11.6501157 L13.3016161,7.14791195 C13.6023784,6.84714967 14.088521,6.84714967 14.3892833,7.14791195 C14.6900456,7.44867424 14.6900456,7.93481687 14.3892833,8.23557916 Z" id="Shape" fill="#7F8E00" fill-rule="nonzero"></path>
    </g>
</svg>