<?xml version="1.0" encoding="UTF-8"?>
<svg width="24px" height="24px" viewBox="0 0 24 24" version="1.1" xmlns="http://www.w3.org/2000/svg">
    <g id="hidden_icon" stroke="none" stroke-width="1" fill="none" fill-rule="evenodd">
        <path d="M4.0242187,3 L3.17578125,3.86533861 L19.9757811,21 L20.8242183,20.1346613 L17.2089843,16.4474102 C19.6664733,14.7503211 20.8794987,12.3773517 20.8957029,12.3454182 C20.9637732,12.2436146 21,12.1232231 21,12 C21,11.8619701 20.9540676,11.7280255 20.8699215,11.6199201 C20.8074069,11.5172798 17.3509779,5.88047806 11.9999998,5.88047806 C10.4819141,5.88047806 9.11959849,6.33955982 7.94062491,6.99442227 L4.0242187,3 Z M11.9999998,7.71633462 C14.3195998,7.71633462 16.1999998,9.63419277 16.1999998,11.9999999 C16.1999998,12.9619618 15.8820256,13.8437188 15.3562498,14.5577691 L13.620703,12.7876491 C13.7337928,12.5494222 13.7999998,12.2832395 13.7999998,11.9999999 C13.7999998,10.9859951 12.9941998,10.1641434 11.9999998,10.1641434 C11.7222922,10.1641434 11.4613084,10.2316692 11.2277345,10.3470118 L9.49218708,8.57689238 C10.1922911,8.04064266 11.0568263,7.71633462 11.9999998,7.71633462 Z M5.97070309,8.37490036 C4.18749496,9.90475213 3.1649885,11.563697 3.13125,11.6187249 C3.04643341,11.7269928 3.00015926,11.861417 3,11.9999999 C3,12.1184121 3.033894,12.2342496 3.09726563,12.3334661 C3.09804275,12.3346641 3.098824,12.3358592 3.09960937,12.3370516 C3.10992557,12.3587636 6.01129873,18.1195218 12,18.1195218 C13.1099998,18.1195218 14.1123184,17.9197096 15.0117184,17.5972108 L13.4589844,16.0123507 C13.0035844,16.1849212 12.5135998,16.2836652 12,16.2836652 C9.68039988,16.2836652 7.79999991,14.3658071 7.79999991,11.9999999 C7.79999991,11.4761688 7.89681555,10.9764236 8.06601555,10.5119519 L5.97070309,8.37490036 Z" id="hidden_icoon" fill="#9FAAB1" fill-rule="nonzero"></path>
    </g>
</svg>