<?xml version="1.0" encoding="UTF-8"?>
<svg width="20px" height="16px" viewBox="0 0 20 16" version="1.1" xmlns="http://www.w3.org/2000/svg">
    <!-- Generator: Sketch 52.4 (67378) - http://www.bohemiancoding.com/sketch -->
    <title>invoice</title>
    <desc>Created with Sketch.</desc>
    <g id="Checkout-–-Delivery" stroke="none" stroke-width="1" fill="none" fill-rule="evenodd">
        <g id="confirm_order" transform="translate(-30.000000, -670.000000)" fill="#9FAAB1" fill-rule="nonzero">
            <g id="invoice" transform="translate(0.000000, 44.000000)">
                <g id="payment_method" transform="translate(0.000000, 604.000000)">
                    <path d="M48.4615385,22 L31.5384615,22 C30.6884615,22 30,22.6884615 30,23.5384615 L30,35.8461538 C30,36.6961538 30.6884615,37.3846154 31.5384615,37.3846154 L48.4615385,37.3846154 C49.3115385,37.3846154 50,36.6961538 50,35.8461538 L50,23.5384615 C50,22.6884615 49.3115385,22 48.4615385,22 Z M38.4615385,34.3076923 L34.6153846,34.3076923 C34.1907692,34.3076923 33.8461538,33.9638462 33.8461538,33.5384615 C33.8461538,33.1130769 34.1907692,32.7692308 34.6153846,32.7692308 L38.4615385,32.7692308 C38.8861538,32.7692308 39.2307692,33.1130769 39.2307692,33.5384615 C39.2307692,33.9638462 38.8861538,34.3076923 38.4615385,34.3076923 Z M40.7692308,31.2307692 L34.6153846,31.2307692 C34.1907692,31.2307692 33.8461538,30.8869231 33.8461538,30.4615385 C33.8461538,30.0361538 34.1907692,29.6923077 34.6153846,29.6923077 L40.7692308,29.6923077 C41.1938462,29.6923077 41.5384615,30.0361538 41.5384615,30.4615385 C41.5384615,30.8869231 41.1938462,31.2307692 40.7692308,31.2307692 Z M45.3846154,34.3076923 L44.6153846,34.3076923 C44.1907692,34.3076923 43.8461538,33.9638462 43.8461538,33.5384615 C43.8461538,33.1130769 44.1907692,32.7692308 44.6153846,32.7692308 L45.3846154,32.7692308 C45.8092308,32.7692308 46.1538462,33.1130769 46.1538462,33.5384615 C46.1538462,33.9638462 45.8092308,34.3076923 45.3846154,34.3076923 Z M45.3846154,31.2307692 L44.6153846,31.2307692 C44.1907692,31.2307692 43.8461538,30.8869231 43.8461538,30.4615385 C43.8461538,30.0361538 44.1907692,29.6923077 44.6153846,29.6923077 L45.3846154,29.6923077 C45.8092308,29.6923077 46.1538462,30.0361538 46.1538462,30.4615385 C46.1538462,30.8869231 45.8092308,31.2307692 45.3846154,31.2307692 Z M45.3846154,26.6153846 L34.6153846,26.6153846 C34.1907692,26.6153846 33.8461538,26.2715385 33.8461538,25.8461538 C33.8461538,25.4207692 34.1907692,25.0769231 34.6153846,25.0769231 L45.3846154,25.0769231 C45.8092308,25.0769231 46.1538462,25.4207692 46.1538462,25.8461538 C46.1538462,26.2715385 45.8092308,26.6153846 45.3846154,26.6153846 Z" id="invoice"></path>
                </g>
            </g>
        </g>
    </g>
</svg>