<?xml version="1.0" encoding="UTF-8"?>
<svg width="11px" height="22px" viewBox="0 0 11 22" version="1.1" xmlns="http://www.w3.org/2000/svg" xmlns:xlink="http://www.w3.org/1999/xlink">
    <title>left-deal</title>
    <g id="left-deal" stroke="none" stroke-width="1" fill="none" fill-rule="evenodd">
        <path d="M11.0019837,-1.1937118e-12 C10.598998,-1.1937118e-12 10.1952322,0.196534803 9.95915247,0.590001091 L9.49971162,1.35683727 C9.30171008,1.68684125 8.97624069,1.9097526 8.60562083,2.01129229 C8.21754884,2.11782967 7.82031458,2.08595306 7.48015663,1.89725848 L6.6967936,1.46426051 C5.89463007,1.01833196 4.90731526,1.58819706 4.89208431,2.5054389 L4.87721036,3.41109887 C4.87044104,3.79441119 4.70011084,4.1501042 4.42933834,4.4208767 L4.42107504,4.42914 C4.15030254,4.70075866 3.79460953,4.87108887 3.41129721,4.87701201 L2.50728988,4.89188597 C1.58920187,4.90796309 1.0185303,5.89443173 1.46445885,6.69659525 L1.89910946,7.48161085 C2.08611172,7.81923031 2.11718185,8.21493047 2.014796,8.5872435 C2.01310367,8.59401197 2.01072383,8.60030573 2.00818534,8.60707505 C1.90749182,8.97515641 1.68780647,9.2998981 1.36034098,9.49620816 L0.590199432,9.95730158 C-0.196733144,10.4294611 -0.196733144,11.569998 0.590199432,12.0413114 L1.36034098,12.5024048 C1.68780647,12.6987149 1.90833798,13.0234566 2.00818534,13.391538 C2.00987767,13.3983073 2.0122575,13.4046002 2.014796,13.4113695 C2.11718185,13.7836817 2.08611172,14.1793827 1.89910946,14.5170022 L1.46445885,15.3036707 C1.01937647,16.1058343 1.59004804,17.0931486 2.50728988,17.1083796 L3.41129721,17.1232535 C3.79460953,17.1300228 4.15030254,17.3003531 4.42107504,17.5711256 L4.42933834,17.5793892 C4.700957,17.8501617 4.87128721,18.2058544 4.87721036,18.5891667 L4.89208431,19.4931737 C4.90731526,20.4104155 5.89463007,20.9810872 6.6967936,20.5360049 L7.48180919,20.0997015 C7.81858248,19.9126993 8.21512881,19.881629 8.58744184,19.9840157 C8.59421031,19.9857072 8.60050407,19.9880874 8.60727339,19.9906259 C8.97535475,20.0913194 9.30009644,20.3126573 9.4964065,20.6401228 L9.95749992,21.4086116 C10.1932681,21.8015585 10.5954788,21.9982913 10.9979092,21.998812 C11.0019837,22 11.0019837,-1.1937118e-12 11.0019837,-1.1937118e-12 Z" id="deal_off-2" fill="#9FAAB1" fill-rule="nonzero"></path>
    </g>
</svg>