<svg width="182" height="19" xmlns="http://www.w3.org/2000/svg"><g transform="translate(0 -7)" fill="none" fill-rule="evenodd"><g transform="translate(0 12)" fill="#15141A" fill-rule="nonzero"><path d="M12.034 9.123c-.413 1.473-.896 2.474-1.449 3-.944.9-2.36 1.35-4.247 1.35-1.102 0-2.054-.161-2.856-.486-.801-.324-1.457-.778-1.966-1.362-.51-.583-.89-1.289-1.14-2.116C.126 8.682 0 7.766 0 6.761c0-1.005.146-1.925.438-2.76.293-.835.714-1.549 1.266-2.14A5.597 5.597 0 0 1 3.733.486C4.535.162 5.453 0 6.489 0c.885 0 1.657.11 2.317.328.66.22 1.215.523 1.666.912.451.39.802.856 1.053 1.399.128.278.256.695.385 1.25a.5.5 0 0 1-.423.608l-2.554.334a.5.5 0 0 1-.547-.364c-.15-.55-.307-.933-.47-1.147-.3-.397-.818-.596-1.552-.596-.535 0-.978.11-1.328.328a2.42 2.42 0 0 0-.84.888 4.003 4.003 0 0 0-.438 1.277 8.685 8.685 0 0 0-.125 1.496c0 .535.041 1.045.125 1.532.084.486.225.916.426 1.289.2.373.476.669.827.887.35.22.793.329 1.327.329.702 0 1.245-.195 1.629-.584.217-.22.412-.655.585-1.306a.5.5 0 0 1 .483-.372h2.518a.5.5 0 0 1 .481.635zm13.347-.003c-.234 1.427-.822 2.51-1.766 3.247-.944.738-2.318 1.107-4.121 1.107-2.172 0-3.804-.584-4.898-1.751-1.094-1.168-1.641-2.822-1.641-4.962 0-1.07.158-2.023.476-2.858a6.036 6.036 0 0 1 1.34-2.128A5.64 5.64 0 0 1 16.838.45C17.64.15 18.525 0 19.494 0c2.004 0 3.511.56 4.522 1.678 1.01 1.119 1.515 2.627 1.515 4.524v.862a.5.5 0 0 1-.5.5h-8.569c.034 1.021.3 1.82.802 2.395.5.576 1.253.864 2.255.864 1.386 0 2.204-.568 2.455-1.703h3.407zM22.15 5.326c0-.875-.221-1.556-.664-2.043-.442-.486-1.131-.73-2.067-.73-.467 0-.876.074-1.227.22a2.608 2.608 0 0 0-1.453 1.471 3.255 3.255 0 0 0-.226 1.082h5.637zM27.862.39h2.408a.5.5 0 0 1 .5.5v1.276C31.204 1.5 31.73 1 32.348.669A4.068 4.068 0 0 1 34.302.17c.334 0 .61.012.827.037.217.024.41.052.576.085L35.28 3.38c-.4-.098-.893-.146-1.478-.146-.384 0-.751.044-1.102.133a2.33 2.33 0 0 0-.952.499c-.3.26-.522.551-.664.876a2.463 2.463 0 0 0-.213.997v6.845a.5.5 0 0 1-.5.5h-2.508a.5.5 0 0 1-.5-.5V.889a.5.5 0 0 1 .5-.5zm9.088 0h2.595a1 1 0 0 1 .95.685l2.703 8.144 2.704-8.144a1 1 0 0 1 .95-.685h2.418a.5.5 0 0 1 .463.688l-4.755 11.696a.5.5 0 0 1-.463.312h-2.834a.5.5 0 0 1-.463-.313L36.487 1.077a.5.5 0 0 1 .463-.688zM62.942 9.12c-.233 1.427-.822 2.51-1.766 3.247-.944.738-2.317 1.107-4.121 1.107-2.171 0-3.804-.584-4.898-1.751-1.094-1.168-1.641-2.822-1.641-4.962 0-1.07.159-2.023.476-2.858a6.036 6.036 0 0 1 1.34-2.128A5.64 5.64 0 0 1 54.4.45c.802-.3 1.687-.45 2.656-.45 2.004 0 3.511.56 4.522 1.678 1.01 1.119 1.516 2.627 1.516 4.524v.862a.5.5 0 0 1-.5.5h-8.57c.034 1.021.301 1.82.802 2.395.501.576 1.253.864 2.255.864 1.386 0 2.205-.568 2.455-1.703h3.407zM59.71 5.326c0-.875-.22-1.556-.663-2.043-.443-.486-1.132-.73-2.067-.73-.468 0-.877.074-1.228.22A2.608 2.608 0 0 0 54.3 4.244a3.255 3.255 0 0 0-.225 1.082h5.636zM67.5 13c.686 0 1.276-.246 1.767-.733.487-.491.733-1.08.733-1.767a2.41 2.41 0 0 0-.733-1.767A2.406 2.406 0 0 0 67.5 8c-.692 0-1.28.24-1.767.733A2.39 2.39 0 0 0 65 10.5c0 .686.24 1.276.733 1.767A2.41 2.41 0 0 0 67.5 13zm0-.23c-.625 0-1.163-.22-1.609-.661-.44-.451-.66-.984-.66-1.609s.22-1.163.66-1.609c.446-.44.984-.66 1.609-.66s1.158.22 1.609.66c.44.446.66.984.66 1.609s-.22 1.158-.66 1.609l-.093.087a.989.989 0 0 1-.158-.482l-.057-.543c-.04-.338-.205-.538-.497-.6v-.015a.764.764 0 0 0 .436-.307.834.834 0 0 0 .138-.471c0-.328-.113-.58-.328-.748-.2-.16-.476-.236-.83-.236h-1.455v3.438h.559v-1.414h.825c.194 0 .343.04.44.128.103.082.164.21.185.394l.046.43c.02.216.061.37.128.462h.527c-.42.358-.911.537-1.475.537zm.149-2.424h-.825v-1.08h.825c.235 0 .404.04.517.133.102.082.154.215.154.4a.524.524 0 0 1-.16.404c-.117.092-.286.143-.511.143z"/></g><text font-family="AktivGroteskTrial-Light, Aktiv Grotesk Trial" font-size="24" font-weight="300" letter-spacing="-.4" fill="#000"><tspan x="71" y="25">wholesaler</tspan></text></g></svg>