<?xml version="1.0" encoding="UTF-8"?>
<svg width="71px" height="16px" viewBox="0 0 71 16" version="1.1" xmlns="http://www.w3.org/2000/svg">
    <!-- Generator: Sketch 52.6 (67491) - http://www.bohemiancoding.com/sketch -->
    <title>Group 4</title>
    <desc>Created with Sketch.</desc>
    <g id="Overview" stroke="none" stroke-width="1" fill="none" fill-rule="evenodd">
        <g id="cerve-overview" transform="translate(-120.000000, -22.000000)" fill="#FFFFFF">
            <g id="Group-4" transform="translate(120.000000, 22.000000)">
                <path d="M11.4851392,12.3188042 C11.1298531,13.4299179 10.7266428,14.2070496 10.2755083,14.6501995 C9.35942287,15.550071 7.98531539,16 6.15314459,16 C5.08302714,16 4.15884866,15.8378634 3.38058142,15.5135854 C2.60231418,15.1893074 1.96592812,14.735325 1.47140414,14.1516245 C0.976880167,13.5679241 0.608019457,12.86263 0.364810944,12.0357211 C0.121602432,11.2088121 -3.33955086e-13,10.2927405 -3.33955086e-13,9.28747862 C-3.33955086e-13,8.28221677 0.141869504,7.3620917 0.425612768,6.52707581 C0.709356033,5.69205992 1.11875089,4.97865899 1.65380961,4.38685161 C2.18886834,3.79504423 2.84552147,3.3370084 3.62378871,3.01273038 C4.40205595,2.68845237 5.29380712,2.52631579 6.29906897,2.52631579 C7.15840572,2.52631579 7.90828738,2.63575798 8.54873646,2.85464564 C9.18918554,3.0735333 9.72828966,3.37753938 10.166065,3.766673 C10.6038403,4.15580662 10.9443271,4.62194928 11.1875356,5.16511495 C11.2646643,5.33736888 11.3417927,5.5625164 11.418921,5.8405575 L11.418923,5.84055692 C11.5665517,6.3727463 11.2548037,6.92384773 10.7226143,7.07147641 C10.6787046,7.08365691 10.6340137,7.09282188 10.588854,7.09890722 L9.11591743,7.29742769 C8.63540134,7.36217809 8.17766126,7.07290643 8.02989873,6.61111149 C7.91802256,6.26147042 7.80317317,6.00646505 7.68535056,5.84609538 C7.39350035,5.44885481 6.89087696,5.25023751 6.17746532,5.25023751 C5.6586205,5.25023751 5.22895857,5.3596797 4.88846665,5.57856736 C4.54797474,5.79745502 4.27639597,6.09335427 4.07372221,6.46627399 C3.87104845,6.83919371 3.72917895,7.26480222 3.64810944,7.74311229 C3.56703994,8.22142237 3.5265058,8.71999234 3.5265058,9.23883717 C3.5265058,9.77389589 3.56703994,10.2846261 3.64810944,10.7710431 C3.72917895,11.2574602 3.86699504,11.6871221 4.06156185,12.0600418 C4.25612866,12.4329615 4.52365401,12.7288608 4.86414592,12.9477484 C5.20463784,13.1666361 5.63429977,13.2760783 6.15314459,13.2760783 C6.83412843,13.2760783 7.3610723,13.0815144 7.73399202,12.6923808 C7.90631362,12.5125669 8.06435365,12.1886456 8.2081121,11.7206168 L8.20812642,11.7206212 C8.33707751,11.3008002 8.72485586,11.0142504 9.16403475,11.0142504 L10.5326844,11.0142889 C11.0849479,11.0142889 11.5326459,11.4619869 11.5326459,12.0142504 C11.5326459,12.1176135 11.51662,12.2203517 11.4851392,12.3188042 Z M24.638969,11.6465894 C24.4119743,13.0734127 23.8404429,14.1556743 22.9243575,14.8934068 C22.0082721,15.6311393 20.6746988,16 18.9235975,16 C16.8157904,16 15.2309054,15.4163083 14.1688949,14.2489075 C13.1068844,13.0815066 12.5758871,11.4277135 12.5758871,9.28747862 C12.5758871,8.21736117 12.7299168,7.26480879 13.0379809,6.42979289 C13.346045,5.594777 13.7797604,4.88542948 14.33914,4.30172905 C14.8985195,3.71802862 15.5673329,3.27620645 16.3456002,2.97624929 C17.1238674,2.67629212 17.9831912,2.52631579 18.9235975,2.52631579 C20.8692656,2.52631579 22.3325482,3.08568698 23.3134892,4.20444613 C24.2944302,5.32320529 24.7848933,6.83107545 24.7848933,8.72810184 L24.7848933,9.0900627 C24.7848933,9.64234745 24.3371781,10.0900627 23.7848933,10.0900627 L15.9807892,10.0900627 C16.013217,11.1115385 16.2726355,11.9100611 16.7590526,12.4856546 C17.2454696,13.061248 17.9750842,13.3490405 18.9479182,13.3490405 C20.293672,13.3490405 21.0881412,12.7815625 21.3313497,11.6465894 L24.638969,11.6465894 Z M21.5015948,7.85255558 C21.5015948,6.97700493 21.2867639,6.29603131 20.8570955,5.80961429 C20.4274271,5.32319726 19.7586138,5.0799924 18.8506353,5.0799924 C18.3966461,5.0799924 17.9994115,5.15295386 17.6589196,5.29887897 C17.3184276,5.44480407 17.0306352,5.64342138 16.7955337,5.89473684 C16.5604321,6.1460523 16.3780284,6.43789814 16.2483172,6.77028311 C16.118606,7.10266808 16.0456446,7.46342196 16.0294307,7.85255558 L21.5015948,7.85255558 Z M27.5623764,2.91544746 L28.8699957,2.91544746 C29.4222804,2.91544746 29.8699957,3.36316271 29.8699957,3.91544746 L29.8699957,4.69086073 C30.2915571,4.02609079 30.8022873,3.52752082 31.4022016,3.19513585 C32.002116,2.86275089 32.6344486,2.6965609 33.2992186,2.6965609 C33.6234966,2.6965609 33.8910219,2.70872114 34.1018026,2.73304199 C34.3125833,2.75736284 34.4990404,2.78573674 34.6611794,2.81816454 L34.247727,5.90689721 C33.8585934,5.8096138 33.3802905,5.76097283 32.812804,5.76097283 C32.4398842,5.76097283 32.0831838,5.80556039 31.7426919,5.89473684 C31.4021999,5.9839133 31.0941404,6.15010329 30.8185041,6.3933118 C30.5266539,6.65273421 30.311823,6.94458005 30.1740048,7.26885807 C30.0361866,7.59313608 29.9672786,7.92551606 29.9672786,8.26600798 L29.9672786,14.6108683 C29.9672786,15.1631531 29.5195633,15.6108683 28.9672786,15.6108683 L27.5623764,15.6108683 C27.0100917,15.6108683 26.5623764,15.1631531 26.5623764,14.6108683 L26.5623764,3.91544746 C26.5623764,3.36316271 27.0100917,2.91544746 27.5623764,2.91544746 Z M36.6167348,2.91544746 L38.3612761,2.91544746 C38.7953718,2.91544746 39.1798901,3.19550978 39.3130589,3.60867452 L41.9351474,11.7438723 L44.557236,3.60867452 C44.6904048,3.19550978 45.074923,2.91544746 45.5090187,2.91544746 L47.0806975,2.91544746 C47.6329822,2.91544746 48.0806975,3.36316271 48.0806975,3.91544746 C48.0806975,4.04110879 48.0570132,4.16564429 48.0108847,4.28253285 L43.7900865,14.9779537 C43.6393632,15.3598836 43.2704939,15.6108683 42.8598992,15.6108683 L40.8170437,15.6108683 C40.4058437,15.6108683 40.0365598,15.3591532 39.8862489,14.9764104 L35.6859399,4.2809895 C35.4840566,3.7669257 35.7371289,3.18653592 36.2511927,2.98465263 C36.3676385,2.93892202 36.4916312,2.91544746 36.6167348,2.91544746 Z M61.1019522,11.6465894 C60.8749576,13.0734127 60.3034262,14.1556743 59.3873408,14.8934068 C58.4712554,15.6311393 57.137682,16 55.3865807,16 C53.2787736,16 51.6938886,15.4163083 50.6318781,14.2489075 C49.5698676,13.0815066 49.0388703,11.4277135 49.0388703,9.28747862 C49.0388703,8.21736117 49.1929001,7.26480879 49.5009642,6.42979289 C49.8090283,5.594777 50.2427436,4.88542948 50.8021232,4.30172905 C51.3615028,3.71802862 52.0303162,3.27620645 52.8085834,2.97624929 C53.5868506,2.67629212 54.4461745,2.52631579 55.3865807,2.52631579 C57.3322488,2.52631579 58.7955314,3.08568698 59.7764724,4.20444613 C60.7574134,5.32320529 61.2478766,6.83107545 61.2478766,8.72810184 L61.2478766,9.0900627 C61.2478766,9.64234745 60.8001613,10.0900627 60.2478766,10.0900627 L52.4437725,10.0900627 C52.4762003,11.1115385 52.7356188,11.9100611 53.2220358,12.4856546 C53.7084528,13.061248 54.4380674,13.3490405 55.4109015,13.3490405 C56.7566552,13.3490405 57.5511245,12.7815625 57.794333,11.6465894 L61.1019522,11.6465894 Z M57.9645781,7.85255558 C57.9645781,6.97700493 57.7497471,6.29603131 57.3200788,5.80961429 C56.8904104,5.32319726 56.221597,5.0799924 55.3136186,5.0799924 C54.8596293,5.0799924 54.4623947,5.15295386 54.1219028,5.29887897 C53.7814109,5.44480407 53.4936185,5.64342138 53.2585169,5.89473684 C53.0234153,6.1460523 52.8410117,6.43789814 52.7113005,6.77028311 C52.5815893,7.10266808 52.5086278,7.46342196 52.4924139,7.85255558 L57.9645781,7.85255558 Z" id="cerve" fill-rule="nonzero"></path>
                <text id="Ⓡ" font-family="PingFangSC-Medium, PingFang SC" font-size="8" font-weight="400" letter-spacing="-0.1">
                    <tspan x="63.1578947" y="7.13157895">Ⓡ</tspan>
                </text>
            </g>
        </g>
    </g>
</svg>