<svg xmlns="http://www.w3.org/2000/svg" width="80" height="16" viewBox="0 0 80 16">
    <g fill="none" fill-rule="evenodd">
        <g fill="#15141A" fill-rule="nonzero">
            <g>
                <path d="M13.78 10.333c-.479 1.735-1.04 2.91-1.683 3.523-1.078 1.028-2.696 1.542-4.853 1.542-1.26 0-2.348-.185-3.264-.555-.916-.371-1.666-.89-2.248-1.557C1.15 12.62.716 11.813.43 10.868.143 9.923 0 8.876 0 7.727s.167-2.2.501-3.155c.334-.954.816-1.77 1.446-2.446.63-.676 1.403-1.2 2.32-1.57C5.181.186 6.231 0 7.415 0c1.011 0 1.894.125 2.648.375.754.25 1.389.598 1.904 1.043.516.444.917.977 1.203 1.598.153.33.305.833.458 1.506.061.27-.108.538-.377.599l-.046.008-3.058.4c-.249.033-.483-.124-.548-.366-.177-.66-.362-1.117-.552-1.369-.344-.454-.936-.68-1.775-.68-.611 0-1.117.124-1.518.374-.4.25-.72.589-.96 1.015-.238.426-.405.912-.5 1.46-.096.546-.143 1.115-.143 1.708 0 .612.047 1.196.143 1.752.095.555.258 1.046.487 1.473.229.426.544.764.944 1.014.401.25.907.375 1.518.375.802 0 1.422-.222 1.861-.667.254-.257.481-.771.682-1.544.058-.22.257-.374.484-.374h3.026c.276 0 .5.224.5.5 0 .045-.006.09-.018.133zm15.227.09c-.267 1.63-.94 2.868-2.019 3.71-1.078.844-2.648 1.265-4.71 1.265-2.481 0-4.347-.667-5.597-2-1.25-1.335-1.876-3.225-1.876-5.671 0-1.223.182-2.312.544-3.266.363-.954.874-1.765 1.532-2.432.659-.667 1.446-1.172 2.362-1.515C20.16.171 21.171 0 22.278 0c2.291 0 4.014.64 5.169 1.918 1.154 1.278 1.732 3.002 1.732 5.17v1.056c0 .276-.224.5-.5.5h-9.865c.038 1.168.343 2.08.916 2.738.573.658 1.432.987 2.577.987 1.584 0 2.52-.649 2.806-1.946h3.894zm-3.694-4.336c0-1-.253-1.779-.758-2.335-.506-.556-1.294-.834-2.363-.834-.534 0-1.002.084-1.402.25-.401.167-.74.394-1.017.682-.277.287-.491.62-.644 1-.153.38-.239.792-.258 1.237h6.442zM31.771.445h2.894c.277 0 .5.224.5.5v1.529c.497-.76 1.098-1.33 1.804-1.71.706-.38 1.45-.57 2.234-.57.381 0 .696.014.944.042.249.028.468.06.659.098l-.487 3.53c-.458-.112-1.021-.167-1.69-.167-.438 0-.858.05-1.259.153-.4.102-.763.291-1.088.57-.344.296-.596.63-.759 1-.162.37-.243.75-.243 1.14v7.894c0 .276-.224.5-.5.5H31.77c-.276 0-.5-.224-.5-.5V.944c0-.275.224-.5.5-.5zm10.352 0h3.175c.43 0 .813.276.949.685l3.122 9.404 3.123-9.404c.136-.41.518-.685.95-.685h2.972c.277 0 .5.224.5.5 0 .064-.012.128-.036.188l-5.492 13.51c-.077.188-.26.31-.463.31h-3.335c-.204 0-.387-.123-.464-.312L41.66 1.132c-.103-.256.02-.547.276-.65.06-.025.123-.037.188-.037zm29.811 9.978c-.267 1.63-.94 2.868-2.018 3.71-1.079.844-2.649 1.265-4.71 1.265-2.482 0-4.348-.667-5.598-2-1.25-1.335-1.875-3.225-1.875-5.671 0-1.223.18-2.312.544-3.266.362-.954.873-1.765 1.531-2.432.659-.667 1.446-1.172 2.363-1.515C63.087.171 64.098 0 65.206 0c2.29 0 4.013.64 5.168 1.918 1.155 1.278 1.732 3.002 1.732 5.17v1.056c0 .276-.224.5-.5.5H61.74c.038 1.168.344 2.08.916 2.738.573.658 1.432.987 2.577.987 1.585 0 2.52-.649 2.806-1.946h3.894zm-3.693-4.336c0-1-.253-1.779-.76-2.335-.505-.556-1.292-.834-2.361-.834-.535 0-1.002.084-1.403.25-.401.167-.74.394-1.017.682-.277.287-.491.62-.644 1-.153.38-.239.792-.258 1.237h6.443zM77.143 5.714c.784 0 1.458-.28 2.02-.837.556-.562.837-1.235.837-2.02 0-.79-.281-1.464-.837-2.02C78.6.275 77.927 0 77.143 0c-.79 0-1.464.275-2.02.837-.562.556-.837 1.23-.837 2.02 0 .785.275 1.458.837 2.02.556.556 1.23.837 2.02.837zm0-.263c-.714 0-1.33-.252-1.839-.755-.503-.516-.755-1.125-.755-1.839s.252-1.329.755-1.838c.51-.504 1.125-.756 1.839-.756s1.323.252 1.838.756c.504.51.756 1.124.756 1.838s-.252 1.323-.756 1.839l-.105.1c-.094-.13-.158-.317-.182-.551l-.064-.62c-.047-.387-.234-.616-.568-.686v-.017c.21-.059.375-.176.498-.352.105-.158.158-.34.158-.538 0-.375-.129-.662-.375-.855-.228-.182-.544-.27-.948-.27h-1.663v3.93h.638V3.22h.943c.222 0 .392.047.503.147.117.093.188.24.21.45l.054.492c.023.246.07.422.146.527h.603c-.48.41-1.042.615-1.686.615zm.17-2.77h-.943V1.446h.943c.269 0 .462.047.591.152.117.094.176.246.176.457 0 .2-.065.357-.182.463-.135.105-.328.163-.585.163z" transform="translate(-740 -48) translate(740 48)"/>
            </g>
        </g>
    </g>
</svg>
