<svg height="17" viewBox="0 0 85 17" width="85" xmlns="http://www.w3.org/2000/svg"><g fill-rule="evenodd" transform="translate(0 -4)"><path d="m13.7193299 16.3689802c-.4412526 1.4586564-.9469739 2.4680336-1.5171638 3.0281317-1.0878514 1.0685974-2.71960408 1.6028881-4.89530689 1.6028881-1.27076448 0-2.36822643-.1925372-3.29241878-.5776173-.92419234-.3850802-1.67990079-.9241843-2.26714801-1.6173285-.58724722-.6931443-1.02526931-1.5306811-1.31407942-2.5126354-.28881011-.9819544-.433213-2.0697895-.433213-3.2635379 0-1.1937485.16847004-2.286397.50541516-3.27797837.33694513-.99158137.82310152-1.83874498 1.45848376-2.54151625.63538224-.70277126 1.41515783-1.24668881 2.33935018-1.63176895.92419234-.38508015 1.98314686-.57761733 3.1768953-.57761733 1.02046239 0 1.91094686.1299626 2.6714801.3898917.7605333.25992909 1.4007195.62093631 1.9205777 1.08303249.5198582.46209617.9241862 1.01564058 1.2129964 1.66064982.1117238.24951648.2234472.59249379.3351704 1.02893192.1369558.53503087-.1857421 1.07978707-.7207716 1.21674847-.037683.0096464-.0758968.0170859-.1144465.0222806l-2.1171424.2852887c-.4869176.0656359-.94937411-.2321852-1.09107457-.70262945-.14588826-.4843477-.29608164-.83166636-.45058014-1.04195598-.34657213-.47172318-.9434374-.70758123-1.79061372-.70758123-.61612823 0-1.12635177.1299626-1.53068592.3898917-.40433415.25992909-.72683393.61130945-.96750902 1.05415162-.24067509.44284214-.40914513.94825224-.50541517 1.51624544-.09627003.5679933-.14440433 1.1600451-.14440433 1.7761733 0 .6353823.0481343 1.2418744.14440433 1.8194946.09627004.5776202.25992665 1.0878438.49097473 1.5306859.23104809.4428422.54873444.7942226.9530686 1.0541517.40433415.2599291.91455768.3898917 1.53068592.3898917.8086683 0 1.43441415-.2310447 1.87725631-.6931408.21879587-.2283088.41820337-.6522548.59822249-1.2718381.12415116-.4271275.51548319-.7209417.96028809-.7209417h2.0195077c.5523036-.0000341 1.0000341.4476964 1.0000341 1 0 .0980979-.0144339.195662-.042838.2895578zm15.5394457-.5386553c-.2695561 1.6943526-.9482496 2.9795383-2.036101 3.8555957-1.0878515.8760573-2.6714698 1.3140794-4.7509026 1.3140794-2.5030209 0-4.3850719-.6931339-5.6462094-2.0794224-1.2611374-1.3862885-1.8916967-3.3501678-1.8916967-5.8916967 0-1.2707645.1829103-2.4019205.5487365-3.39350184.3658261-.99158137.8808631-1.83393155 1.5451263-2.52707581.6642633-.69314426 1.4584791-1.21780809 2.3826715-1.57400722.9241923-.35619913 1.9446394-.53429603 3.0613718-.53429603 2.3104809 0 4.048129.66425329 5.2129964 1.99277978 1.1648675 1.3285265 1.7472924 3.11912232 1.7472924 5.37184112v.6173286c0 .5522847-.4477152 1-1 1h-9.4548736c.038508 1.2130024.3465675 2.161248.9241877 2.8447653s1.4440376 1.0252708 2.599278 1.0252708c1.5980826 0 2.5415148-.6738802 2.8303249-2.0216607zm-3.7256317-4.5054152c0-1.0397163-.2551118-1.84837252-.765343-2.42599273-.5102312-.57762022-1.3044471-.866426-2.3826715-.866426-.5391122 0-1.0108283.08664174-1.4151624.2599278-.4043342.17328607-.7460877.40914412-1.0252708.70758123s-.4957874.64500404-.6498195 1.0397112c-.154032.3947071-.2406738.8231024-.2599278 1.2851985zm7.0096781-5.86281584h1.9277979c.5522847 0 1 .44771525 1 1v1.10830325c.5006042-.78941429 1.1070963-1.38146614 1.8194945-1.77617328.7123983-.39470715 1.4632933-.59205777 2.2527076-.59205777.3850802 0 .7027665.01444029.9530686.0433213.2503021.02888102.4717199.06257502.6642599.10108304l-.4909747 3.66787003c-.4620962-.11552404-1.0300808-.1732852-1.7039711-.1732852-.4428422 0-.866424.05294773-1.2707581.15884477-.4043342.10589704-.7701548.30324765-1.0974729.59205776-.3465722.30806412-.6016839.65463104-.765343 1.03971124-.1636591.3850801-.2454874.7797813-.2454874 1.1841155v7.7220216c0 .5522848-.4477152 1-1 1h-2.0433213c-.5522847 0-1-.4477152-1-1v-13.07581224c0-.55228475.4477153-1 1-1zm10.6644747 0h2.4832836c.4340956 0 .8186139.28006232.9517827.69322706l3.1556246 9.79052748 3.1556245-9.79052748c.1331688-.41316474.5176871-.69322706.9517827-.69322706h2.2785c.5522848 0 1 .44771525 1 1 0 .12566133-.0236843.25019683-.0698127.36708539l-5.1601865 13.07581225c-.1507233.3819299-.5195926.6329146-.9301872.6329146h-2.6812747c-.4112 0-.7804839-.2517151-.9307948-.6344579l-5.135137-13.0758123c-.2018833-.5140638.051189-1.09445358.5652528-1.29633687.1164457-.04573061.2404385-.06920517.365542-.06920517zm29.3512715 10.36823104c-.2695561 1.6943526-.9482496 2.9795383-2.036101 3.8555957-1.0878514.8760573-2.6714698 1.3140794-4.7509026 1.3140794-2.5030209 0-4.3850719-.6931339-5.6462093-2.0794224-1.2611375-1.3862885-1.8916968-3.3501678-1.8916968-5.8916967 0-1.2707645.1829103-2.4019205.5487365-3.39350184.3658261-.99158137.8808631-1.83393155 1.5451263-2.52707581.6642633-.69314426 1.4584791-1.21780809 2.3826715-1.57400722.9241923-.35619913 1.9446394-.53429603 3.0613718-.53429603 2.3104809 0 4.048129.66425329 5.2129964 1.99277978 1.1648675 1.3285265 1.7472924 3.11912232 1.7472924 5.37184112v.6173286c0 .5522847-.4477152 1-1 1h-9.4548736c.038508 1.2130024.3465675 2.161248.9241877 2.8447653s1.4440376 1.0252708 2.599278 1.0252708c1.5980826 0 2.5415148-.6738802 2.8303249-2.0216607zm-3.7256317-4.5054152c0-1.0397163-.2551118-1.84837252-.765343-2.42599273-.5102312-.57762022-1.3044471-.866426-2.3826715-.866426-.5391122 0-1.0108283.08664174-1.4151624.2599278-.4043342.17328607-.7460877.40914412-1.0252708.70758123s-.4957874.64500404-.6498195 1.0397112c-.154032.3947071-.2406738.8231024-.2599278 1.2851985z" fill-rule="nonzero"/><text font-family="AppleColorEmoji, Apple Color Emoji" font-size="8" letter-spacing="-.1"><tspan x="75" y="10">™️</tspan></text></g></svg>