<?xml version="1.0" encoding="UTF-8"?>
<svg width="110px" height="36px" viewBox="0 0 110 36" version="1.1" xmlns="http://www.w3.org/2000/svg">
    <!-- Generator: Sketch 52.6 (67491) - http://www.bohemiancoding.com/sketch -->
    <title>Group</title>
    <desc>Created with Sketch.</desc>
    <g id="Home" stroke="none" stroke-width="1" fill="none" fill-rule="evenodd">
        <g id="homepage_desktop_en" transform="translate(-48.000000, -40.000000)">
            <g id="Group" transform="translate(48.000000, 40.000000)">
                <g id="Group-3">
                    <path d="M17.9999718,8.17124146e-14 C8.0588681,8.17124146e-14 1.03028697e-13,8.05871643 1.03028697e-13,17.999633 C1.03028697e-13,27.9405496 8.0588681,35.999379 17.9999718,35.999379 C27.9410755,35.999379 35.9999436,27.9405496 35.9999436,17.999633 C35.9999436,8.05871643 27.9410755,8.17124146e-14 17.9999718,8.17124146e-14" id="Path" fill="#000000"></path>
                    <path d="M27.1790603,14.9777499 L27.1790603,14.9779757 C27.0134091,16.222651 26.4683523,17.3471835 25.664148,18.231769 C24.917532,19.0527827 23.9477894,19.6672727 22.850562,19.9788085 C22.8232358,19.9860351 22.7960225,19.9934876 22.769035,20.0013917 C21.2793035,20.4242629 20.0243292,21.4052788 19.2445152,22.7039281 C19.1892982,22.7958419 19.052667,22.7854536 19.0126939,22.6858615 C18.7343502,21.9918785 18.581233,21.2343237 18.581233,20.4407487 C18.581233,20.1682819 18.5994128,19.9001059 18.6344175,19.637124 C19.0271475,16.6850428 21.555163,14.4075231 24.6149109,14.4075231 C24.8531686,14.4075231 25.3196342,14.4485116 25.3196342,14.4485116 C25.9638332,13.9312425 26.6013701,12.0098604 26.6013701,12.0098604 C26.6531996,11.9112846 26.7976221,11.9193016 26.8373694,12.0232974 C27.0924519,12.6915355 27.2322448,13.4166834 27.2322448,14.1743511 C27.2322448,14.446705 27.2140649,14.7151068 27.1790603,14.9777499 M27.1790603,22.1171026 L27.1790603,22.1173284 C27.0134091,23.3620037 26.4683523,24.4865362 25.664148,25.3711217 C24.917532,26.1922483 23.9477894,26.8066254 22.850562,27.1181612 C22.8232358,27.1253878 22.7960225,27.1328403 22.769035,27.1407444 C21.2793035,27.5636156 20.0243292,28.5446316 19.2445152,29.8432808 C19.1892982,29.9351946 19.052667,29.9248063 19.0126939,29.8252142 C18.7343502,29.1312312 18.581233,28.3736764 18.581233,27.5801014 C18.581233,27.3076346 18.5994128,27.0394586 18.6344175,26.7764768 C19.0271475,23.8243956 21.555163,21.5468758 24.6149109,21.5468758 C24.8531686,21.5468758 25.3196342,21.5878643 25.3196342,21.5878643 C25.9638332,21.0705952 26.6013701,19.1492131 26.6013701,19.1492131 C26.6531996,19.0506373 26.7976221,19.0586543 26.8373694,19.1627631 C27.0924519,19.8308882 27.2322448,20.5560361 27.2322448,21.3137038 C27.2322448,21.5860577 27.2140649,21.8544595 27.1790603,22.1171026 M18.0173189,16.2539288 C17.8238898,16.0418722 17.336873,15.4745812 16.5702705,14.5685416 C15.6389201,13.4677215 15.1445637,12.2612119 15.0937504,10.8218691 L15.0937504,10.8215303 L15.0937504,10.8213045 L15.0937504,10.8210786 C15.0911533,10.7497156 15.0897983,10.677788 15.0897983,10.6056345 C15.0897983,10.5334811 15.0911533,10.4615535 15.0937504,10.3901904 L15.0937504,10.3899646 L15.0937504,10.3896258 L15.0937504,10.3894 C15.1682765,8.27402787 16.331787,6.43575209 18.04058,5.41803836 C18.0812306,5.39398721 18.1321568,5.39398721 18.1726945,5.41803836 C19.9395275,6.47041737 21.1232504,8.39992943 21.1232504,10.6056345 C21.1232504,12.0989513 20.6049552,13.4292171 19.6812833,14.5263109 C18.8943555,15.4610312 18.4094842,16.0579063 18.2039729,16.2592359 C18.1513529,16.3106127 18.0667771,16.3082415 18.0173189,16.2539288 M17.2195509,22.6813449 C17.1796907,22.7809369 17.0430595,22.7914381 16.9878425,22.6994114 C16.2079156,21.4008751 14.9529413,20.4198592 13.4633227,19.9968751 C13.4362223,19.9890838 13.409009,19.9815185 13.3817957,19.9742918 C12.2844554,19.6628689 11.3147128,19.048379 10.5682097,18.2273653 C9.7640054,17.3427797 9.21883572,16.2182473 9.05329745,14.973572 L9.05329745,14.9733461 C9.01817985,14.7105901 9,14.4421883 9,14.1699474 C9,13.4122796 9.13979289,12.6870189 9.39487539,12.0188937 C9.43462264,11.914785 9.5791581,11.9067679 9.63098761,12.0054567 C9.63098761,12.0054567 10.2684116,13.9268388 10.9126106,14.443995 C10.9126106,14.443995 11.3790762,14.4030064 11.6174468,14.4030064 C14.6770818,14.4030064 17.2050973,16.6805262 17.5978273,19.6327203 C17.632832,19.8957021 17.6511247,20.1637652 17.6511247,20.4363449 C17.6511247,21.22992 17.4980075,21.9874748 17.2195509,22.6813449 M17.2195509,29.8206976 C17.1796907,29.9202897 17.0430595,29.9307909 16.9878425,29.8387642 C16.2079156,28.5402278 14.9529413,27.5592119 13.4633227,27.1362278 C13.4362223,27.1284366 13.409009,27.1209841 13.3817957,27.1137575 C12.2844554,26.8022216 11.3147128,26.1877317 10.5682097,25.366718 C9.7640054,24.4821324 9.21883572,23.3576 9.05329745,22.1129247 L9.05329745,22.1126989 C9.01817985,21.8499429 9,21.581541 9,21.3093001 C9,20.5516324 9.13979289,19.8263716 9.39487539,19.1582464 C9.43462264,19.0541377 9.5791581,19.0462336 9.63098761,19.1448094 C9.63098761,19.1448094 10.2684116,21.0661915 10.9126106,21.5833477 C10.9126106,21.5833477 11.3790762,21.5423591 11.6174468,21.5423591 C14.6770818,21.5423591 17.2050973,23.8199918 17.5978273,26.772073 C17.632832,27.0350549 17.6511247,27.3031179 17.6511247,27.5756976 C17.6511247,28.3692727 17.4980075,29.1268275 17.2195509,29.8206976" id="Fill-1" fill="#FFFFFF"></path>
                </g>
                <path d="M57.9511501,21.1203039 C57.5777726,22.3040512 57.1530211,23.1297742 56.6768953,23.5974729 C55.7250253,24.5324956 54.2972418,25 52.3935018,25 C51.2815829,25 50.3213037,24.83153 49.5126354,24.4945848 C48.7039671,24.1576397 48.0427222,23.6859236 47.5288809,23.0794224 C47.0150395,22.4729212 46.6317702,21.7400765 46.3790614,20.8808664 C46.1263525,20.0216564 46,19.0698006 46,18.0252708 C46,16.9807409 46.1474113,16.0246734 46.4422383,15.1570397 C46.7370653,14.289406 47.1624521,13.5481379 47.7184116,12.933213 C48.274371,12.3182881 48.9566747,11.8423603 49.765343,11.5054152 C50.5740113,11.16847 51.5005965,11 52.5451264,11 C53.4380309,11 54.2172049,11.1137173 54.8826715,11.3411552 C55.5481381,11.5685932 56.108301,11.8844745 56.5631769,12.2888087 C57.0180528,12.6931428 57.3718399,13.1774942 57.6245487,13.7418773 C57.7091122,13.9307357 57.7936755,14.1807864 57.8782386,14.4920293 L57.8782182,14.4920349 C58.0230186,15.0249874 57.7083592,15.5744147 57.1754067,15.7192151 C57.1331421,15.7306982 57.0901687,15.7393922 57.0467643,15.7452411 L55.4394156,15.9618059 C54.9573529,16.0267647 54.4984742,15.7354168 54.3521924,15.2715141 C54.2332256,14.8942354 54.1110147,14.6202168 53.9855596,14.4494585 C53.682309,14.0367007 53.1600518,13.8303249 52.4187726,13.8303249 C51.8796604,13.8303249 51.4332148,13.9440422 51.0794224,14.1714801 C50.72563,14.3989181 50.4434427,14.7063759 50.232852,15.0938628 C50.0222613,15.4813497 49.87485,15.9235836 49.7906137,16.4205776 C49.7063774,16.9175717 49.6642599,17.435617 49.6642599,17.9747292 C49.6642599,18.5306887 49.7063774,19.0613693 49.7906137,19.566787 C49.87485,20.0722047 50.0180495,20.5186503 50.2202166,20.9061372 C50.4223837,21.2936241 50.7003592,21.6010819 51.0541516,21.8285199 C51.407944,22.0559578 51.8543896,22.1696751 52.3935018,22.1696751 C53.1010866,22.1696751 53.6486142,21.967511 54.0361011,21.5631769 C54.2180929,21.3732723 54.3847542,21.0286753 54.5360849,20.5293857 L54.5361303,20.5293995 C54.6639137,20.1077999 55.0525537,19.8194946 55.4930929,19.8194946 L56.997471,19.8194996 C57.549753,19.8194996 57.997466,20.2672126 57.997466,20.8194946 C57.997466,20.9215402 57.9818465,21.0229846 57.9511501,21.1203039 Z M71.6014287,20.4765343 C71.3655671,21.9590929 70.7717102,23.0836303 69.8198402,23.8501805 C68.8679703,24.6167307 67.4823042,25 65.6628005,25 C63.4726572,25 61.8258626,24.3935079 60.7223673,23.1805054 C59.618872,21.967503 59.0671327,20.2491086 59.0671327,18.0252708 C59.0671327,16.9133518 59.2271792,15.9235904 59.5472771,15.0559567 C59.8673749,14.188323 60.3180323,13.4512666 60.8992626,12.8447653 C61.480493,12.2382641 62.1754319,11.7791833 62.9841002,11.467509 C63.7927685,11.1558348 64.6856597,11 65.6628005,11 C67.6844713,11 69.2049134,11.5812216 70.2241724,12.7436823 C71.2434314,13.906143 71.7530532,15.4729143 71.7530532,17.4440433 L71.7530532,17.8592058 C71.7530532,18.4114905 71.305338,18.8592058 70.7530532,18.8592058 L62.6050388,18.8592058 C62.6387333,19.9205829 62.9082854,20.7502979 63.413703,21.3483755 C63.9191207,21.9464531 64.6772359,22.2454874 65.6880713,22.2454874 C67.0863936,22.2454874 67.9118967,21.6558422 68.1646056,20.4765343 L71.6014287,20.4765343 Z M68.3415009,16.534296 C68.3415009,15.6245442 68.1182781,14.91697 67.6718258,14.4115523 C67.2253735,13.9061347 66.5304346,13.6534296 65.5869882,13.6534296 C65.1152651,13.6534296 64.7025135,13.7292411 64.3487211,13.8808664 C63.9949287,14.0324917 63.6958944,14.2388675 63.4516092,14.5 C63.207324,14.7611325 63.0177952,15.0643785 62.8830171,15.4097473 C62.7482391,15.755116 62.6724276,16.1299619 62.6555803,16.534296 L68.3415009,16.534296 Z M74.5999693,11.4043321 L76.0367924,11.4043321 C76.5890771,11.4043321 77.0367924,11.8520474 77.0367924,12.4043321 L77.0367924,13.2490975 C77.474821,12.55836 78.0055017,12.0403146 78.6288501,11.6949458 C79.2521986,11.3495771 79.9092318,11.1768953 80.5999693,11.1768953 C80.9369144,11.1768953 81.21489,11.1895306 81.4339043,11.2148014 C81.6529186,11.2400723 81.8466592,11.2695546 82.0151317,11.3032491 L81.5855288,14.5126354 C81.1811947,14.4115518 80.6842081,14.3610108 80.0945541,14.3610108 C79.7070672,14.3610108 79.3364331,14.4073401 78.9826408,14.5 C78.6288484,14.5926599 78.3087553,14.7653417 78.0223519,15.0180505 C77.7191013,15.2876066 77.4958785,15.5908527 77.3526769,15.9277978 C77.2094752,16.264743 77.1378754,16.6101065 77.1378754,16.9638989 L77.1378754,23.5956679 C77.1378754,24.1479526 76.6901602,24.5956679 76.1378754,24.5956679 L74.5999693,24.5956679 C74.0476845,24.5956679 73.5999693,24.1479526 73.5999693,23.5956679 L73.5999693,12.4043321 C73.5999693,11.8520474 74.0476845,11.4043321 74.5999693,11.4043321 Z M83.9897685,11.4043321 L85.8882145,11.4043321 C86.3223101,11.4043321 86.7068284,11.6843945 86.8399972,12.0975592 L89.5732391,20.5776173 L92.306481,12.0975592 C92.4396498,11.6843945 92.8241681,11.4043321 93.2582637,11.4043321 L94.9771969,11.4043321 C95.5294817,11.4043321 95.9771969,11.8520474 95.9771969,12.4043321 C95.9771969,12.5299935 95.9535126,12.654529 95.9073842,12.7714175 L91.49088,23.9627533 C91.3401568,24.3446832 90.9712874,24.5956679 90.5606928,24.5956679 L88.3848333,24.5956679 C87.9736333,24.5956679 87.6043494,24.3439528 87.4540385,23.9612099 L83.0589737,12.7698742 C82.8570904,12.2558104 83.1101627,11.6754206 83.6242265,11.4735373 C83.7406722,11.4278067 83.864665,11.4043321 83.9897685,11.4043321 Z M109.488747,20.4765343 C109.252886,21.9590929 108.659029,23.0836303 107.707159,23.8501805 C106.755289,24.6167307 105.369623,25 103.550119,25 C101.359976,25 99.7131811,24.3935079 98.6096858,23.1805054 C97.5061906,21.967503 96.9544512,20.2491086 96.9544512,18.0252708 C96.9544512,16.9133518 97.1144977,15.9235904 97.4345956,15.0559567 C97.7546935,14.188323 98.2053508,13.4512666 98.7865812,12.8447653 C99.3678115,12.2382641 100.06275,11.7791833 100.871419,11.467509 C101.680087,11.1558348 102.572978,11 103.550119,11 C105.57179,11 107.092232,11.5812216 108.111491,12.7436823 C109.13075,13.906143 109.640372,15.4729143 109.640372,17.4440433 L109.640372,17.8592058 C109.640372,18.4114905 109.192657,18.8592058 108.640372,18.8592058 L100.492357,18.8592058 C100.526052,19.9205829 100.795604,20.7502979 101.301022,21.3483755 C101.806439,21.9464531 102.564554,22.2454874 103.57539,22.2454874 C104.973712,22.2454874 105.799215,21.6558422 106.051924,20.4765343 L109.488747,20.4765343 Z M106.228819,16.534296 C106.228819,15.6245442 106.005597,14.91697 105.559144,14.4115523 C105.112692,13.9061347 104.417753,13.6534296 103.474307,13.6534296 C103.002584,13.6534296 102.589832,13.7292411 102.23604,13.8808664 C101.882247,14.0324917 101.583213,14.2388675 101.338928,14.5 C101.094643,14.7611325 100.905114,15.0643785 100.770336,15.4097473 C100.635558,15.755116 100.559746,16.1299619 100.542899,16.534296 L106.228819,16.534296 Z" id="cerve" fill="#000000" fill-rule="nonzero"></path>
            </g>
        </g>
    </g>
</svg>