<?xml version="1.0" encoding="UTF-8"?>
<svg width="24px" height="24px" viewBox="0 0 24 24" version="1.1" xmlns="http://www.w3.org/2000/svg" xmlns:xlink="http://www.w3.org/1999/xlink">
    <title>nonfavorite_icon24</title>
    <g id="nonfavorite_icon24" stroke="none" stroke-width="1" fill="none" fill-rule="evenodd">
        <path d="M12.0002074,0.500000054 L14.9000004,8.59690208 L23.2791088,8.69391057 C23.3291599,8.69449331 23.3733916,8.70766499 23.4080833,8.7331716 C23.446888,8.76170223 23.4733752,8.80288973 23.4878123,8.84729959 C23.5022297,8.89164935 23.5050408,8.94046331 23.4904431,8.98627348 C23.4774156,9.02715603 23.4494544,9.06366249 23.4092453,9.09355998 L23.4092453,9.09355998 L16.6820654,14.1004412 L19.180771,22.1052594 C19.1956836,22.1531096 19.19684,22.199304 19.1832831,22.240222 C19.1681712,22.2858335 19.1372646,22.3236548 19.0995697,22.3510278 C19.0618575,22.3784133 19.0163012,22.3961004 18.9682201,22.3963605 C18.925045,22.3965941 18.8813973,22.3811856 18.8406442,22.3523162 L18.8406442,22.3523162 L12.0004945,17.5012984 L5.15926728,22.351485 C5.11862501,22.3803216 5.07528839,22.3955991 5.0324066,22.3953519 C4.98424873,22.3950743 4.93861531,22.377284 4.9008183,22.3498369 C4.86298812,22.3223657 4.8319296,22.2844384 4.81674715,22.238698 C4.80324166,22.1980099 4.80433526,22.1520904 4.8191616,22.1045816 L4.8191616,22.1045816 L7.31793459,14.0995472 L0.59056672,9.09252616 C0.550545606,9.06276852 0.52258436,9.02626207 0.509556867,8.98537952 C0.494959158,8.93956935 0.497770259,8.89075539 0.512187743,8.84640563 C0.526624763,8.80199577 0.553111968,8.76080827 0.591916669,8.73227764 C0.626608371,8.70677103 0.670840149,8.69359935 0.720858396,8.69301699 L0.720858396,8.69301699 L9.10579953,8.59594097 L11.7892317,0.651114436 C11.8053066,0.603667509 11.8315885,0.565669273 11.8666356,0.540559587 C11.9058872,0.512437565 11.9533795,0.499969468 12.0002074,0.500000054 L12.0002074,0.500000054 Z" id="Path" stroke="#9FAAB1" fill-rule="nonzero"></path>
    </g>
</svg>