<?xml version="1.0" encoding="UTF-8"?>
<svg width="10px" height="10px" viewBox="0 0 10 10" version="1.1" xmlns="http://www.w3.org/2000/svg">
    <!-- Generator: Sketch 52.4 (67378) - http://www.bohemiancoding.com/sketch -->
    <title>Combined Shape</title>
    <desc>Created with Sketch.</desc>
    <g id="Explore" stroke="none" stroke-width="1" fill="none" fill-rule="evenodd">
        <g id="home_scrolled" transform="translate(-332.000000, -413.000000)" fill="#9AA241" fill-rule="nonzero">
            <g id="list">
                <g id="running-out" transform="translate(0.000000, 112.000000)">
                    <g id="product3" transform="translate(26.000000, 273.000000)">
                        <g id="icon-//-add" transform="translate(299.000000, 21.000000)">
                            <path d="M12.8333333,11.1666667 L16.1666667,11.1666667 C16.626904,11.1666667 17,11.5397627 17,12 C17,12.4602373 16.626904,12.8333333 16.1666667,12.8333333 L12.8333333,12.8333333 L12.8333333,16.1666667 C12.8333333,16.626904 12.4602373,17 12,17 C11.5397627,17 11.1666667,16.626904 11.1666667,16.1666667 L11.1666667,12.8333333 L7.83333333,12.8333333 C7.37309604,12.8333333 7,12.4602373 7,12 C7,11.5397627 7.37309604,11.1666667 7.83333333,11.1666667 L11.1666667,11.1666667 L11.1666667,7.83333333 C11.1666667,7.37309604 11.5397627,7 12,7 C12.4602373,7 12.8333333,7.37309604 12.8333333,7.83333333 L12.8333333,11.1666667 Z" id="Combined-Shape"></path>
                        </g>
                    </g>
                </g>
            </g>
        </g>
    </g>
</svg>