<?xml version="1.0" encoding="UTF-8"?>
<svg width="14px" height="14px" viewBox="0 0 14 14" version="1.1" xmlns="http://www.w3.org/2000/svg" xmlns:xlink="http://www.w3.org/1999/xlink">
    <title>clock_icon</title>
    <g id="clock_icon" stroke="none" stroke-width="1" fill="none" fill-rule="evenodd">
        <path d="M7,0 C10.86575,0 14,3.13425 14,7 C14,10.86575 10.86575,14 7,14 C3.13425,14 0,10.86575 0,7 C0,3.13425 3.13425,0 7,0 Z M7.0035,2.16666667 C6.67625,2.16666667 6.41666667,2.42625 6.41666667,2.74708333 L6.41666667,2.74708333 L6.41666667,6.41666667 L3.91375,6.41666667 C3.59291667,6.41666667 3.33333333,6.67625 3.33333333,6.9965 L3.33333333,6.9965 C3.33333333,7.32375 3.59291667,7.58333333 3.91375,7.58333333 L3.91375,7.58333333 L7.58333333,7.58333333 L7.58333333,2.74708333 C7.58333333,2.42625 7.32375,2.16666667 7.0035,2.16666667 L7.0035,2.16666667 Z" id="Path-2" fill="#828C13" fill-rule="nonzero"></path>
    </g>
</svg>