<?xml version="1.0" encoding="UTF-8"?>
<svg width="10px" height="10px" viewBox="0 0 10 10" version="1.1" xmlns="http://www.w3.org/2000/svg" xmlns:xlink="http://www.w3.org/1999/xlink">
    <title>clock_icon-10</title>
    <g id="clock_icon-10" stroke="none" stroke-width="1" fill="none" fill-rule="evenodd">
        <path d="M5,0 C7.76125,0 10,2.23875 10,5 C10,7.76125 7.76125,10 5,10 C2.23875,10 0,7.76125 0,5 C0,2.23875 2.23875,0 5,0 Z M5.0025,1.54761905 C4.76875,1.54761905 4.58333333,1.73303571 4.58333333,1.96220238 L4.58333333,1.96220238 L4.58333333,4.58333333 L2.79553571,4.58333333 C2.56636905,4.58333333 2.38095238,4.76875 2.38095238,4.9975 L2.38095238,4.9975 C2.38095238,5.23125 2.56636905,5.41666667 2.79553571,5.41666667 L2.79553571,5.41666667 L5.41666667,5.41666667 L5.41666667,1.96220238 C5.41666667,1.73303571 5.23125,1.54761905 5.0025,1.54761905 L5.0025,1.54761905 Z" id="Path-2" fill="#828C13" fill-rule="nonzero"></path>
    </g>
</svg>