<?xml version="1.0" encoding="UTF-8"?>
<svg width="28px" height="28px" viewBox="0 0 28 28" version="1.1" xmlns="http://www.w3.org/2000/svg">
    <!-- Generator: Sketch 53.2 (72643) - https://sketchapp.com -->
    <title>Shape</title>
    <desc>Created with Sketch.</desc>
    <g id="Explore" stroke="none" stroke-width="1" fill="none" fill-rule="evenodd" fill-opacity="0.16">
        <g id="home_emptycart" transform="translate(-25.000000, -54.000000)" fill="#000000" fill-rule="nonzero">
            <g id="list">
                <path d="M39,54 C31.2685,54 25,60.2685 25,68 C25,75.7315 31.2685,82 39,82 C46.7315,82 53,75.7315 53,68 C53,60.2685 46.7315,54 39,54 Z M30.8333333,76.3311667 C32.1948333,72.2478333 36.2781667,73.8415 36.9583333,71.6295 L36.9583333,70.1548333 C36.6526667,69.9903333 35.7765,68.861 35.6843333,67.979 C35.4428333,67.958 35.0648333,67.7188333 34.9528333,66.7726667 C34.8933333,66.2651667 35.1313333,65.9793333 35.2748333,65.8895 C35.2748333,65.8895 34.9155,65.0705 34.9155,64.2573333 C34.9166667,61.84 36.1136667,59.8333333 39,59.8333333 C40.5586667,59.8333333 41.0416667,60.9381667 41.0416667,60.9381667 C42.4346667,60.9381667 43.0833333,62.4653333 43.0833333,64.2561667 C43.0833333,65.1486667 42.724,65.8883333 42.724,65.8883333 C42.8686667,65.9781667 43.1066667,66.264 43.0471667,66.7715 C42.9351667,67.7176667 42.5571667,67.9568333 42.3156667,67.9778333 C42.2235,68.8598333 41.3485,69.9891667 41.0416667,70.1536667 L41.0416667,71.6283333 C41.7218333,73.8415 45.8051667,72.2478333 47.1666667,76.3311667 C47.1666667,76.3311667 44.1123333,79.6666667 39,79.6666667 C33.8585,79.6666667 30.8333333,76.3311667 30.8333333,76.3311667 Z" id="Shape"></path>
            </g>
        </g>
    </g>
</svg>