<?xml version="1.0" encoding="UTF-8"?>
<svg width="24px" height="24px" viewBox="0 0 24 24" version="1.1" xmlns="http://www.w3.org/2000/svg">
    <g stroke="none" stroke-width="1" fill="none" fill-rule="evenodd">
        <g id="self-invite_grossist" transform="translate(-316.000000, -272.000000)" fill="#9FAAB1" fill-rule="nonzero">
            <g id="input_field" transform="translate(25.000000, 254.000000)">
                <path d="M299.328295,18 C294.738569,18 291,21.7385693 291,26.3282952 C291,30.9180212 294.738569,34.6565904 299.328295,34.6565904 C301.324178,34.6565904 303.157133,33.9478409 304.593665,32.7713376 L309.566243,37.7439153 C309.77513,37.9614843 310.085318,38.049127 310.377176,37.9730424 C310.669035,37.8969577 310.896958,37.6690349 310.973042,37.3771764 C311.049127,37.0853179 310.961484,36.7751302 310.743915,36.5662427 L305.771338,31.593665 C306.947841,30.1571332 307.65659,28.3241778 307.65659,26.3282952 C307.65659,21.7385693 303.918021,18 299.328295,18 Z M299.328295,19.665659 C303.017832,19.665659 305.990931,22.6387583 305.990931,26.3282952 C305.990931,30.0178324 303.017832,32.9909314 299.328295,32.9909314 C295.638758,32.9909314 292.665659,30.0178324 292.665659,26.3282952 C292.665659,22.6387583 295.638758,19.665659 299.328295,19.665659 Z" id="search_icon_20px"></path>
            </g>
        </g>
    </g>
</svg>