<?xml version="1.0" encoding="UTF-8"?>
<svg width="12px" height="12px" viewBox="0 0 12 12" version="1.1" xmlns="http://www.w3.org/2000/svg">
    <g id="search_icon" stroke="none" stroke-width="1" fill="none" fill-rule="evenodd">
        <path d="M4.99697713,0 C2.24314159,0 0,2.24314159 0,4.99697713 C0,7.75081273 2.24314159,9.99395427 4.99697713,9.99395427 C6.1945067,9.99395427 7.2942799,9.56870452 8.156199,8.86280254 L11.1397456,11.8463492 C11.2650781,11.9768906 11.4511907,12.0294762 11.6263058,11.9838254 C11.8014209,11.9381746 11.9381746,11.8014209 11.9838254,11.6263058 C12.0294762,11.4511907 11.9768906,11.2650781 11.8463492,11.1397456 L8.86280254,8.156199 C9.56870452,7.2942799 9.99395427,6.1945067 9.99395427,4.99697713 C9.99395427,2.24314159 7.75081273,0 4.99697713,0 Z M4.99697713,0.999395427 C7.21069947,0.999395427 8.99455884,2.783255 8.99455884,4.99697713 C8.99455884,7.21069947 7.21069947,8.99455884 4.99697713,8.99455884 C2.783255,8.99455884 0.999395427,7.21069947 0.999395427,4.99697713 C0.999395427,2.783255 2.783255,0.999395427 4.99697713,0.999395427 Z" fill="#FFFFFF" fill-rule="nonzero"></path>
    </g>
</svg>