<?xml version="1.0" encoding="UTF-8"?>
<svg width="16px" height="16px" viewBox="0 0 16 16" version="1.1" xmlns="http://www.w3.org/2000/svg" xmlns:xlink="http://www.w3.org/1999/xlink">
    <title>search_icon</title>
    <g id="Full-Buyer-Onboarding" stroke="none" stroke-width="1" fill="none" fill-rule="evenodd">
        <g id="self-invite_grossist" transform="translate(-316.000000, -272.000000)" fill="#9FAAB1" fill-rule="nonzero">
            <g id="input_field" transform="translate(25.000000, 254.000000)">
                <path d="M297.662636,18 C293.990855,18 291,20.9908554 291,24.6626362 C291,28.334417 293.990855,31.3252724 297.662636,31.3252724 C299.259342,31.3252724 300.725707,30.7582727 301.874932,29.8170701 L305.852994,33.7951322 C306.020104,33.9691875 306.268254,34.0393016 306.501741,33.9784339 C306.735228,33.9175662 306.917566,33.7352279 306.978434,33.5017411 C307.039302,33.2682543 306.969187,33.0201041 306.795132,32.8529942 L302.81707,28.874932 C303.758273,27.7257065 304.325272,26.2593423 304.325272,24.6626362 C304.325272,20.9908554 301.334417,18 297.662636,18 Z M297.662636,19.3325272 C300.614266,19.3325272 302.992745,21.7110067 302.992745,24.6626362 C302.992745,27.614266 300.614266,29.9927451 297.662636,29.9927451 C294.711007,29.9927451 292.332527,27.614266 292.332527,24.6626362 C292.332527,21.7110067 294.711007,19.3325272 297.662636,19.3325272 Z" id="search_icon"></path>
            </g>
        </g>
    </g>
</svg>