<?xml version="1.0" encoding="UTF-8"?>
<svg width="23px" height="23px" viewBox="0 0 23 23" version="1.1" xmlns="http://www.w3.org/2000/svg">
    <g id="Checkout-–-Delivery" stroke="none" stroke-width="1" fill="none" fill-rule="evenodd">
        <g id="confirm_order-copy" transform="translate(-25.000000, -644.000000)" fill="#9BA342" fill-rule="nonzero">
            <path d="M36.5,644 C30.149125,644 25,649.120519 25,655.436111 C25,661.751703 30.149125,666.872222 36.5,666.872222 C42.850875,666.872222 48,661.751703 48,655.436111 C48,649.120519 42.850875,644 36.5,644 Z M42.9275417,652.774356 L35.6825417,659.979106 C35.502375,660.158272 35.2589583,660.258338 35.005,660.258338 C34.7510417,660.258338 34.5066667,660.158272 34.3274583,659.979106 L31.0183333,656.688365 C30.643625,656.315739 30.643625,655.713437 31.0183333,655.34081 C31.3930417,654.968184 31.9987083,654.968184 32.3734167,655.34081 L35.005,657.957774 L41.5724583,651.426801 C41.9471667,651.054175 42.5528333,651.054175 42.9275417,651.426801 C43.30225,651.799428 43.30225,652.40173 42.9275417,652.774356 Z" id="Shape"></path>
        </g>
    </g>
</svg>