<?xml version="1.0" encoding="UTF-8"?>
<svg width="20px" height="20px" viewBox="0 0 20 20" version="1.1" xmlns="http://www.w3.org/2000/svg">
    <g id="Full-Buyer-Onboarding" stroke="none" stroke-width="1" fill="none" fill-rule="evenodd">
        <g id="signup_type-selected-state" transform="translate(-149.000000, -396.000000)" fill="#FFFFFF" fill-rule="nonzero">
            <g id="Group-Copy" transform="translate(135.000000, 274.000000)">
                <path d="M24,122 C18.4775,122 14,126.4775 14,132 C14,137.5225 18.4775,142 24,142 C29.5225,142 34,137.5225 34,132 C34,126.4775 29.5225,122 24,122 Z M29.5891667,129.6725 L23.2891667,135.9725 C23.1325,136.129167 22.9208333,136.216667 22.7,136.216667 C22.4791667,136.216667 22.2666667,136.129167 22.1108333,135.9725 L19.2333333,133.095 C18.9075,132.769167 18.9075,132.2425 19.2333333,131.916667 C19.5591667,131.590833 20.0858333,131.590833 20.4116667,131.916667 L22.7,134.205 L28.4108333,128.494167 C28.7366667,128.168333 29.2633333,128.168333 29.5891667,128.494167 C29.915,128.82 29.915,129.346667 29.5891667,129.6725 Z" id="Shape"></path>
            </g>
        </g>
    </g>
</svg>