<svg xmlns="http://www.w3.org/2000/svg" xmlns:xlink="http://www.w3.org/1999/xlink" width="28" height="28" viewBox="0 0 28 28">
    <defs>
        <rect id="08fht9sjwa" width="28" height="28" x="0" y="0" rx="14"/>
    </defs>
    <g fill="none" fill-rule="evenodd">
        <g>
            <g transform="translate(-28 -26) translate(28 26)">
                <mask id="5x6t4o3npb" fill="#fff">
                    <use xlink:href="#08fht9sjwa"/>
                </mask>
                <use fill="#0062A8" xlink:href="#08fht9sjwa"/>
                <path fill="#FFF" d="M20.186 11.982c-.113.85-.485 1.617-1.034 2.22-.51.561-1.172.98-1.92 1.193l-.056.016c-1.017.288-1.874.958-2.406 1.844-.038.063-.13.056-.158-.012-.19-.474-.295-.99-.295-1.532 0-.186.013-.37.037-.549.268-2.015 1.993-3.57 4.082-3.57.162 0 .48.029.48.029.44-.354.876-1.665.876-1.665.035-.067.134-.062.16.01.175.455.27.95.27 1.467 0 .186-.012.37-.036.549m0 4.873c-.113.85-.485 1.617-1.034 2.22-.51.561-1.172.98-1.92 1.193l-.056.016c-1.017.288-1.874.958-2.406 1.844-.038.063-.13.056-.158-.012-.19-.474-.295-.99-.295-1.532 0-.186.013-.37.037-.549.268-2.015 1.993-3.57 4.082-3.57.162 0 .48.028.48.028.44-.353.876-1.664.876-1.664.035-.067.134-.062.16.01.175.455.27.95.27 1.467 0 .186-.012.37-.036.549m-6.253-4.002c-.132-.145-.465-.532-.988-1.15-.636-.752-.973-1.575-1.008-2.558l-.003-.147c0-.05.001-.099.003-.147V8.85c.05-1.444.845-2.699 2.011-3.393.028-.017.063-.017.09 0 1.207.718 2.015 2.035 2.015 3.54 0 1.02-.354 1.928-.985 2.677-.537.638-.868 1.045-1.008 1.182-.036.035-.094.034-.127-.003m-.545 4.387c-.027.068-.12.075-.158.012-.532-.886-1.389-1.556-2.406-1.844l-.055-.016c-.75-.212-1.411-.632-1.92-1.192-.55-.604-.922-1.372-1.035-2.221-.024-.18-.036-.363-.036-.549 0-.517.095-1.012.27-1.468.026-.07.125-.076.16-.009 0 0 .436 1.311.875 1.664 0 0 .319-.028.481-.028 2.089 0 3.814 1.555 4.082 3.57.024.18.037.362.037.549 0 .541-.105 1.058-.295 1.532m0 4.873c-.027.068-.12.075-.158.012-.532-.886-1.389-1.556-2.406-1.844l-.055-.016c-.75-.212-1.411-.632-1.92-1.192-.55-.604-.922-1.372-1.035-2.221-.024-.18-.036-.363-.036-.549 0-.517.095-1.012.27-1.468.026-.07.125-.076.16-.009 0 0 .436 1.311.875 1.664 0 0 .319-.028.481-.028 2.089 0 3.814 1.555 4.082 3.57.024.18.037.362.037.548 0 .542-.105 1.06-.295 1.533" mask="url(#5x6t4o3npb)"/>
            </g>
        </g>
    </g>
</svg>
