<?xml version="1.0" encoding="UTF-8"?>
<svg width="20px" height="20px" viewBox="0 0 20 20" version="1.1" xmlns="http://www.w3.org/2000/svg" xmlns:xlink="http://www.w3.org/1999/xlink">
    <title>delete_icon</title>
    <g id="delete_icon" stroke="none" stroke-width="1" fill="none" fill-rule="evenodd">
        <path d="M7.96890651,8.01908342e-05 C7.7362375,-0.00307756807 7.51200738,0.0871383507 7.34635707,0.250554435 C7.18070676,0.413970519 7.08745444,0.636954967 7.0874526,0.869645408 L1.88194999,0.869645408 C1.56835354,0.865210374 1.27666185,1.02997175 1.11856936,1.30083919 C0.960476879,1.57170663 0.960476879,1.90671462 1.11856936,2.17758206 C1.27666185,2.4484495 1.56835354,2.61321088 1.88194999,2.60877584 L17.5341239,2.60877584 C17.8477204,2.61321088 18.139412,2.4484495 18.2975045,2.17758206 C18.455597,1.90671462 18.455597,1.57170663 18.2975045,1.30083919 C18.139412,1.02997175 17.8477204,0.865210374 17.5341239,0.869645408 L12.3286213,0.869645408 C12.3286195,0.636954967 12.2353671,0.413970519 12.0697168,0.250554435 C11.9040665,0.0871383507 11.6798364,-0.00307756807 11.4471674,8.01908342e-05 L7.96890651,8.01908342e-05 Z M1.88194999,4.34790628 L1.88194999,18.2609498 C1.88194999,19.2218193 2.66021086,20.0000802 3.62108043,20.0000802 L15.7949935,20.0000802 C16.755863,20.0000802 17.5341239,19.2218193 17.5341239,18.2609498 L17.5341239,4.34790628 L1.88194999,4.34790628 Z" id="Shape" fill="#9FAAB1" fill-rule="nonzero"></path>
    </g>
</svg>