<?xml version="1.0" encoding="UTF-8"?>
<svg width="24px" height="24px" viewBox="0 0 24 24" version="1.1" xmlns="http://www.w3.org/2000/svg">
    <g id="showing_icon" stroke="none" stroke-width="1" fill="none" fill-rule="evenodd">
        <path d="M12,6 C6.6490218,6 3.19259288,11.526708 3.13007813,11.6273436 C3.04593203,11.7333376 3,11.8646661 3,12 C3,12.1160995 3.033894,12.2296745 3.09726563,12.3269532 C3.09804275,12.3281277 3.098824,12.3292996 3.09960937,12.3304686 C3.10992557,12.3517566 6.01129878,18 12,18 C17.9632932,18 20.8603956,12.4072446 20.8957032,12.3386718 C20.8980914,12.3347924 20.9004354,12.330886 20.9027346,12.3269532 C20.9661061,12.2296745 21,12.1160995 21,12 C21,11.8652075 20.9545703,11.7343485 20.8710936,11.6285154 C20.8707035,11.6281243 20.8703129,11.6277337 20.8699218,11.6273436 C20.8074072,11.526708 17.3509782,6 12,6 Z M12,7.8 C14.3196,7.8 16.2,9.6804 16.2,12 C16.2,14.3196 14.3196,16.2 12,16.2 C9.6804,16.2 7.8,14.3196 7.8,12 C7.8,9.6804 9.6804,7.8 12,7.8 Z M12,10.2 C11.0058875,10.2 10.2,11.0058875 10.2,12 C10.2,12.9941125 11.0058875,13.8 12,13.8 C12.9941125,13.8 13.8,12.9941125 13.8,12 C13.8,11.0058875 12.9941125,10.2 12,10.2 Z" fill="#9FAAB1" fill-rule="nonzero"></path>
    </g>
</svg>