<?xml version="1.0" encoding="UTF-8"?>
<svg width="20px" height="20px" viewBox="0 0 20 20" version="1.1" xmlns="http://www.w3.org/2000/svg">
    <g stroke="none" stroke-width="1" fill="none" fill-rule="evenodd">
        <g transform="translate(-325.000000, -244.000000)" fill="#9FAAB1" fill-rule="nonzero">
            <path d="M335,244 C329.4775,244 325,248.4775 325,254 C325,259.5225 329.4775,264 335,264 C340.5225,264 345,259.5225 345,254 C345,248.4775 340.5225,244 335,244 Z M336.01,248.166667 L335.843333,255.666667 L334.156667,255.666667 L333.99,248.166667 L336.01,248.166667 Z M335.0025,259.990833 C334.3125,259.990833 333.9,259.623333 333.9,259.005833 C333.9,258.376667 334.311667,258.009167 335.0025,258.009167 C335.6875,258.009167 336.099167,258.376667 336.099167,259.005833 C336.099167,259.623333 335.6875,259.990833 335.0025,259.990833 Z" id="warning_icon"></path>
        </g>
    </g>
</svg>